<?xml version="1.0" encoding="utf-8"?>
<!-- Generator: Adobe Illustrator 16.0.0, SVG Export Plug-In . SVG Version: 6.00 Build 0)  -->
<!DOCTYPE svg PUBLIC "-//W3C//DTD SVG 1.1//EN" "http://www.w3.org/Graphics/SVG/1.1/DTD/svg11.dtd">
<svg version="1.1" id="Layer_2" xmlns="http://www.w3.org/2000/svg" xmlns:xlink="http://www.w3.org/1999/xlink" x="0px" y="0px"
	 width="198.137px" height="24.486px" viewBox="0 0 198.137 24.486" enable-background="new 0 0 198.137 24.486"
	 xml:space="preserve">
<g>
	<g>
		<path fill="#FFFFFF" d="M37.694,24.077V0.412h17.349v5.32H43.797v4.757h9.934v5.321h-9.934v8.267H37.694z"/>
		<path fill="#FFFFFF" d="M64.445,24.077V0.412h6.102v18.343h9.509v5.322H64.445z"/>
		<path fill="#FFFFFF" d="M91.303,24.077v-9.545l-8.978-14.12h6.884l5.145,8.728l5.074-8.728h6.918l-8.941,14.12v9.545H91.303z"/>
	</g>
	<g>
		<path fill="#FFFFFF" d="M113.905,24.062V0.392h2.058v21.824h11.462v1.846H113.905z"/>
		<path fill="#FFFFFF" d="M151.906,24.062l-2.342-5.818h-12.527l-2.342,5.818h-2.341l9.688-23.67h2.521l9.688,23.67H151.906z
			 M143.319,2.557l-5.607,13.839h11.179L143.319,2.557z"/>
		<path fill="#FFFFFF" d="M159.495,24.062V0.392h9.724c3.975,0,6.529,2.308,6.529,6.032c0,2.981-2.021,5.003-4.151,5.429
			c2.52,0.393,4.612,3.019,4.612,5.821c0,3.938-2.555,6.388-6.777,6.388H159.495z M173.619,6.637c0-2.413-1.597-4.4-4.648-4.4
			h-7.452v8.767h7.452C172.022,11.002,173.619,9.085,173.619,6.637z M174.081,17.531c0-2.413-1.668-4.686-4.969-4.686h-7.594v9.369
			h7.594C172.235,22.216,174.081,20.406,174.081,17.531z"/>
		<path fill="#FFFFFF" d="M181.067,20.726l1.312-1.526c1.526,1.738,4.011,3.442,7.417,3.442c4.827,0,6.21-2.697,6.21-4.721
			c0-6.955-14.193-3.334-14.193-11.604c0-3.867,3.478-6.316,7.771-6.316c3.514,0,6.21,1.243,8.021,3.337l-1.35,1.489
			c-1.703-2.059-4.115-2.979-6.777-2.979c-3.158,0-5.536,1.81-5.536,4.365c0,6.066,14.194,2.729,14.194,11.569
			c0,3.051-2.022,6.705-8.41,6.705C185.821,24.487,182.876,22.89,181.067,20.726z"/>
	</g>
</g>
<g>
	<polygon fill="#00C4BA" points="4.43,11.259 4.43,4.84 10.642,4.84 10.642,0.412 0,0.412 0,11.259 	"/>
	<polygon fill="#F5D820" points="10.642,19.648 4.43,19.648 4.43,13.281 0,13.281 0,24.077 10.642,24.077 	"/>
	<polygon fill="#A2C922" points="19.253,11.259 19.253,4.84 13.042,4.84 13.042,0.412 23.683,0.412 23.683,11.259 	"/>
	<polygon fill="#FF8400" points="13.042,19.648 19.253,19.648 19.253,13.281 23.683,13.281 23.683,24.077 13.042,24.077 	"/>
</g>
</svg>
