<?xml version="1.0" encoding="utf-8"?>
<!-- Generator: Adobe Illustrator 16.0.0, SVG Export Plug-In . SVG Version: 6.00 Build 0)  -->
<!DOCTYPE svg PUBLIC "-//W3C//DTD SVG 1.1//EN" "http://www.w3.org/Graphics/SVG/1.1/DTD/svg11.dtd">
<svg version="1.1" id="Layer_2" xmlns="http://www.w3.org/2000/svg" xmlns:xlink="http://www.w3.org/1999/xlink" x="0px" y="0px"
	 width="200px" height="24.718px" viewBox="0 0 200 24.718" enable-background="new 0 0 200 24.718" xml:space="preserve">
<g>
	<g>
		<path d="M38.049,24.304V0.416h17.512v5.371H44.209v4.801h10.026v5.372H44.209v8.344H38.049z"/>
		<path d="M65.052,24.304V0.416h6.159v18.516h9.598v5.372H65.052z"/>
		<path d="M92.162,24.304v-9.635L83.101,0.416h6.949l5.192,8.81l5.122-8.81h6.983l-9.025,14.253v9.635H92.162z"/>
	</g>
	<g>
		<path d="M114.977,24.288V0.396h2.078v22.029h11.57v1.863H114.977z"/>
		<path d="M153.335,24.288l-2.364-5.874h-12.645l-2.364,5.874h-2.363l9.779-23.893h2.543l9.779,23.893H153.335z M144.667,2.581
			l-5.66,13.969h11.284L144.667,2.581z"/>
		<path d="M160.996,24.288V0.396h9.815c4.012,0,6.591,2.328,6.591,6.089c0,3.01-2.042,5.05-4.191,5.479
			c2.544,0.396,4.657,3.046,4.657,5.876c0,3.977-2.579,6.448-6.841,6.448H160.996z M175.252,6.699c0-2.436-1.612-4.441-4.692-4.441
			h-7.522v8.848h7.522C173.64,11.105,175.252,9.171,175.252,6.699z M175.719,17.696c0-2.436-1.684-4.729-5.016-4.729h-7.665v9.457
			h7.665C173.855,22.425,175.719,20.598,175.719,17.696z"/>
		<path d="M182.771,20.921l1.325-1.542c1.54,1.756,4.048,3.476,7.487,3.476c4.872,0,6.268-2.723,6.268-4.765
			c0-7.021-14.328-3.365-14.328-11.713c0-3.904,3.51-6.377,7.845-6.377c3.546,0,6.269,1.255,8.095,3.368l-1.361,1.504
			c-1.719-2.077-4.155-3.008-6.841-3.008c-3.188,0-5.588,1.825-5.588,4.406c0,6.124,14.329,2.756,14.329,11.678
			c0,3.08-2.042,6.77-8.49,6.77C187.569,24.718,184.597,23.105,182.771,20.921z"/>
	</g>
</g>
<g>
	<polygon fill="#00C4BA" points="4.472,11.364 4.472,4.886 10.742,4.886 10.742,0.416 0,0.416 0,11.364 	"/>
	<polygon fill="#F5D820" points="10.742,19.833 4.472,19.833 4.472,13.405 0,13.405 0,24.304 10.742,24.304 	"/>
	<polygon fill="#A2C922" points="19.434,11.364 19.434,4.886 13.165,4.886 13.165,0.416 23.906,0.416 23.906,11.364 	"/>
	<polygon fill="#FF8400" points="13.165,19.833 19.434,19.833 19.434,13.405 23.906,13.405 23.906,24.304 13.165,24.304 	"/>
</g>
</svg>
