<?xml version="1.0" encoding="utf-8"?>
<!-- Generator: Adobe Illustrator 16.0.0, SVG Export Plug-In . SVG Version: 6.00 Build 0)  -->
<!DOCTYPE svg PUBLIC "-//W3C//DTD SVG 1.1//EN" "http://www.w3.org/Graphics/SVG/1.1/DTD/svg11.dtd">
<svg version="1.1" id="Layer_1" xmlns="http://www.w3.org/2000/svg" xmlns:xlink="http://www.w3.org/1999/xlink" x="0px" y="0px"
	 width="31.232px" height="25.38px" viewBox="0 0 31.232 25.38" enable-background="new 0 0 31.232 25.38" xml:space="preserve">
<path d="M30.37,0.468c-1.238,0.732-2.609,1.268-4.069,1.554C25.133,0.777,23.468,0,21.624,0c-3.537,0-6.408,2.868-6.408,6.406
	c0,0.502,0.057,0.991,0.168,1.459C10.058,7.599,5.337,5.049,2.177,1.172C1.626,2.117,1.31,3.219,1.31,4.395
	c0,2.222,1.13,4.182,2.852,5.333C3.11,9.693,2.12,9.404,1.256,8.924c0,0.028,0,0.055,0,0.083c0,3.102,2.208,5.692,5.14,6.282
	c-0.537,0.146-1.102,0.225-1.688,0.225c-0.414,0-0.813-0.04-1.207-0.116c0.816,2.546,3.184,4.397,5.985,4.45
	c-2.192,1.719-4.953,2.743-7.956,2.743c-0.517,0-1.027-0.03-1.53-0.089c2.836,1.817,6.206,2.878,9.824,2.878
	c11.784,0,18.229-9.763,18.229-18.231c0-0.276-0.006-0.553-0.019-0.828c1.253-0.903,2.341-2.032,3.197-3.317
	c-1.149,0.51-2.384,0.854-3.681,1.01C28.876,3.22,29.892,1.964,30.37,0.468z"/>
</svg>
