<?xml version="1.0" encoding="utf-8"?>
<!-- Generator: Adobe Illustrator 16.0.0, SVG Export Plug-In . SVG Version: 6.00 Build 0)  -->
<!DOCTYPE svg PUBLIC "-//W3C//DTD SVG 1.1//EN" "http://www.w3.org/Graphics/SVG/1.1/DTD/svg11.dtd">
<svg version="1.1" id="Layer_1" xmlns="http://www.w3.org/2000/svg" xmlns:xlink="http://www.w3.org/1999/xlink" x="0px" y="0px"
	 width="27.644px" height="27.641px" viewBox="0 0 27.644 27.641" enable-background="new 0 0 27.644 27.641" xml:space="preserve">
<path d="M22.299,0H5.341C2.396,0,0,2.395,0,5.341v5.644v11.314c0,2.945,2.396,5.342,5.341,5.342h16.958
	c2.947,0,5.345-2.397,5.345-5.342V10.985V5.341C27.644,2.395,25.246,0,22.299,0z M23.834,3.187l0.609-0.002v0.609v4.076
	l-4.672,0.016L19.759,3.2L23.834,3.187z M9.877,10.985c0.885-1.225,2.319-2.028,3.944-2.028c1.623,0,3.06,0.803,3.945,2.028
	c0.577,0.798,0.921,1.775,0.921,2.837c0,2.681-2.185,4.863-4.866,4.863c-2.681,0-4.865-2.182-4.865-4.863
	C8.956,12.76,9.299,11.783,9.877,10.985z M24.949,22.299c0,1.46-1.188,2.65-2.65,2.65H5.341c-1.46,0-2.646-1.189-2.646-2.65V10.985
	H6.82c-0.357,0.876-0.557,1.832-0.557,2.837c0,4.166,3.389,7.558,7.558,7.558s7.558-3.392,7.558-7.558
	c0-1.005-0.202-1.96-0.559-2.837h4.129V22.299z"/>
</svg>
