<?xml version="1.0" encoding="utf-8"?>
<!-- Generator: Adobe Illustrator 16.0.0, SVG Export Plug-In . SVG Version: 6.00 Build 0)  -->
<!DOCTYPE svg PUBLIC "-//W3C//DTD SVG 1.1//EN" "http://www.w3.org/Graphics/SVG/1.1/DTD/svg11.dtd">
<svg version="1.1" xmlns="http://www.w3.org/2000/svg" xmlns:xlink="http://www.w3.org/1999/xlink" x="0px" y="0px" width="100px"
	 height="100px" viewBox="0 0 100 100" enable-background="new 0 0 100 100" xml:space="preserve">
<g id="GET_STARTED" display="none">
	<g display="inline">
		<path fill="#00C4BA" d="M5,19.979v17.014h90V19.979H5z M30.644,34.136H7.858V22.836h22.786V34.136z"/>
		<path fill="#00C4BA" d="M5,58.508h90V41.493H5V58.508z M33.604,44.351h39.822v11.297H33.604V44.351z"/>
		<path fill="#00C4BA" d="M5,80.021h90V63.008H5V80.021z M65.164,65.865h26.977v11.299H65.164V65.865z"/>
	</g>
</g>
<g id="MUSIC" display="none">
	<g display="inline">
		<polygon fill-rule="evenodd" clip-rule="evenodd" fill="#FFFFFF" points="36.269,31.182 41.181,31.182 41.181,22.999 
			49.362,22.999 49.362,18.093 41.181,18.093 41.181,9.909 36.269,9.909 36.269,18.093 28.091,18.093 28.091,22.999 36.269,22.999 
					"/>
		<path fill-rule="evenodd" clip-rule="evenodd" fill="#FFFFFF" d="M70.27,21.356C61.658,13.383,60.815,5,60.815,5h-4.91v59.673
			c-3.28-3.486-7.926-5.671-13.089-5.671c-9.943,0-18.002,8.059-18.002,17.999C24.814,86.943,32.874,95,42.816,95
			c9.388,0,17.084-7.19,17.915-16.36h0.084V29.073c14.735,3.44,11.644,16.824,11.644,16.824S79.862,30.243,70.27,21.356z
			 M42.748,89.461c-6.841,0-12.394-5.55-12.394-12.39c0-6.841,5.553-12.39,12.394-12.39s12.391,5.549,12.391,12.39
			C55.139,83.911,49.588,89.461,42.748,89.461z"/>
	</g>
</g>
<g id="VOICE_OVER" display="none">
	<g display="inline">
		<g>
			<path fill="#FFFFFF" d="M49.687,10.504c6.089,0,11.089,4.772,11.364,10.862l0.017,0.29c0,0,0,25.608,0,25.781
				c0,6.281-5.112,11.39-11.381,11.39c-6.281,0-11.393-5.109-11.393-11.39c0-0.234,0.031-24.729,0.031-24.729
				c-0.02-0.32-0.031-0.578-0.031-0.81C38.293,15.613,43.405,10.504,49.687,10.504 M49.687,4.971
				c-9.35,0-16.929,7.579-16.929,16.926c0,0.406,0.021,0.805,0.048,1.2v23.141c-0.027,0.394-0.048,0.795-0.048,1.199
				c0,9.347,7.58,16.926,16.929,16.926c9.335,0,16.916-7.579,16.916-16.926c0-0.248-0.01-0.495-0.02-0.738h0.02V21.112h-0.021
				C66.17,12.128,58.759,4.971,49.687,4.971L49.687,4.971z"/>
		</g>
		<path fill="#FFFFFF" d="M70.714,35.426v11.878c0,7.342-2.378,12.979-7.068,16.753c-3.691,2.972-8.88,4.685-14.241,4.716
			c-5.376-0.031-10.56-1.744-14.254-4.716c-4.688-3.773-7.064-9.411-7.064-16.753V35.426h-5.179v11.878
			c0,17.071,11.507,25.394,23.756,26.52v15.97H34.635v5.177h30.14v-5.177H51.832V73.851c12.359-1.014,24.058-9.336,24.058-26.546
			V35.426H70.714z"/>
	</g>
</g>
<g id="TRANSITIONS" display="none">
	<g display="inline">
		<polygon fill="#00C4BA" points="50.002,5 50.002,5 50.002,5 		"/>
		<path fill="#00C4BA" d="M81.817,18.181C73.033,9.393,61.52,5,50.002,5v5.666c10.505,0,20.381,4.091,27.811,11.521
			S89.335,39.494,89.335,50c0,0.868-0.07,1.724-0.126,2.584L47.42,10.792c0.857-0.056,1.712-0.126,2.58-0.126L50.002,5
			C50,5,50,5,50,5C38.484,5,26.966,9.395,18.181,18.181c-17.576,17.574-17.573,46.066,0,63.639C26.968,90.605,38.484,95,50,95
			c11.515,0,23.031-4.395,31.817-13.181C99.395,64.245,99.395,35.754,81.817,18.181z M88.219,59.179
			c-1.463,6.138-4.383,11.819-8.603,16.646L24.175,20.383c4.826-4.219,10.51-7.14,16.649-8.602L88.219,59.179z M75.823,79.616
			c-4.823,4.219-10.509,7.14-16.646,8.603L11.782,40.823c1.462-6.138,4.383-11.822,8.602-16.648L75.823,79.616z M22.187,77.812
			c-7.43-7.428-11.521-17.307-11.521-27.812c0-0.867,0.07-1.723,0.126-2.581l41.792,41.789c-0.858,0.056-1.715,0.126-2.583,0.126
			C39.494,89.335,29.616,85.242,22.187,77.812z"/>
	</g>
</g>
<g id="SPEED" display="none">
	<g display="inline">
		<g>
			<g>
				
					<rect x="73.135" y="15.747" transform="matrix(0.7071 0.7071 -0.7071 0.7071 39.2524 -46.6567)" fill="#00C4BA" width="5.622" height="16.613"/>
				
					<rect x="21.242" y="67.641" transform="matrix(0.7071 0.7072 -0.7072 0.7071 60.7521 5.2377)" fill="#00C4BA" width="5.625" height="16.613"/>
			</g>
			<g>
				
					<rect x="73.136" y="67.639" transform="matrix(-0.7071 0.7071 -0.7071 -0.7071 183.351 75.9451)" fill="#00C4BA" width="5.622" height="16.613"/>
				
					<rect x="21.241" y="15.748" transform="matrix(-0.7071 0.7071 -0.7071 -0.7071 58.0707 24.0547)" fill="#00C4BA" width="5.624" height="16.613"/>
			</g>
		</g>
		<g>
			<g>
				<g>
					<rect x="47.188" y="5" fill="#00C4BA" width="5.623" height="16.612"/>
					<rect x="47.188" y="78.388" fill="#00C4BA" width="5.623" height="16.612"/>
				</g>
				<g>
					<rect x="78.388" y="47.188" fill="#00C4BA" width="16.612" height="5.623"/>
					<rect x="5" y="47.188" fill="#00C4BA" width="16.612" height="5.623"/>
				</g>
			</g>
			<g>
				<g>
					
						<rect x="73.135" y="15.747" transform="matrix(0.7071 0.7071 -0.7071 0.7071 39.2524 -46.6567)" fill="#00C4BA" width="5.622" height="16.613"/>
					
						<rect x="21.242" y="67.641" transform="matrix(0.7071 0.7072 -0.7072 0.7071 60.7521 5.2377)" fill="#00C4BA" width="5.625" height="16.613"/>
				</g>
				<g>
					
						<rect x="73.136" y="67.639" transform="matrix(-0.7071 0.7071 -0.7071 -0.7071 183.351 75.9451)" fill="#00C4BA" width="5.622" height="16.613"/>
					
						<rect x="21.241" y="15.748" transform="matrix(-0.7071 0.7071 -0.7071 -0.7071 58.0707 24.0547)" fill="#00C4BA" width="5.624" height="16.613"/>
				</g>
			</g>
		</g>
		<g>
			<g>
				<g>
					
						<rect x="61.089" y="7.735" transform="matrix(0.9254 0.3789 -0.3789 0.9254 10.843 -23.0164)" fill="#00C4BA" width="5.622" height="16.612"/>
					
						<rect x="33.288" y="75.653" transform="matrix(0.9255 0.3787 -0.3787 0.9255 34.4854 -7.4178)" fill="#00C4BA" width="5.624" height="16.612"/>
				</g>
				<g>
					
						<rect x="81.148" y="55.594" transform="matrix(-0.3788 0.9255 -0.9255 -0.3788 174.9032 10.4071)" fill="#00C4BA" width="5.622" height="16.612"/>
					
						<rect x="13.23" y="27.793" transform="matrix(-0.3789 0.9254 -0.9254 -0.3789 55.527 34.9314)" fill="#00C4BA" width="5.623" height="16.612"/>
				</g>
			</g>
			<g>
				<g>
					
						<rect x="81.03" y="27.51" transform="matrix(0.3865 0.9223 -0.9223 0.3865 84.4695 -55.353)" fill="#00C4BA" width="5.622" height="16.612"/>
					
						<rect x="13.347" y="55.878" transform="matrix(0.3866 0.9223 -0.9223 0.3866 69.1077 24.4702)" fill="#00C4BA" width="5.625" height="16.612"/>
				</g>
				<g>
					
						<rect x="61.374" y="75.535" transform="matrix(-0.9223 0.3865 -0.3865 -0.9223 155.7875 136.3573)" fill="#00C4BA" width="5.621" height="16.612"/>
					
						<rect x="33.003" y="7.853" transform="matrix(-0.9223 0.3866 -0.3866 -0.9223 75.0937 17.2172)" fill="#00C4BA" width="5.625" height="16.613"/>
				</g>
			</g>
		</g>
	</g>
</g>
<g id="SPLIT" display="none">
	<path display="inline" fill="#FFFFFF" d="M51.875,27.501V16.25h-3.75v11.251H5v45h43.125V83.75h3.75V72.501H95v-45H51.875z
		 M48.125,68.749H8.75V31.251h39.375V68.749z M91.25,68.749H51.875V31.251H91.25V68.749z"/>
</g>
<g id="DUPLICATE" display="none">
	<g display="inline">
		<path fill="#FFFFFF" d="M72.5,38.75v-22.5H5v45h22.5v22.5H95v-45H72.5z M27.5,57.5H8.75V20h59.999v18.75H27.5V57.5z M91.25,80h-60
			V61.25v-1.876V57.5v-15h37.5h1.876H72.5h18.75V80z"/>
		<polygon fill="#FFFFFF" points="63.124,49.999 59.373,49.999 59.373,59.374 49.999,59.374 49.999,63.125 59.373,63.125 
			59.373,72.5 63.124,72.5 63.124,63.125 72.5,63.125 72.5,59.374 63.124,59.374 		"/>
	</g>
</g>
<g id="AUDIO_1">
	<g>
		<path fill="#00C4BA" d="M19.328,39.039V5.447h-5.97v33.592C8.542,40.351,5,44.751,5,49.983c0,5.229,3.542,9.631,8.358,10.942
			v33.627h5.97V60.926c4.816-1.312,8.36-5.713,8.36-10.942C27.688,44.751,24.144,40.35,19.328,39.039z M19.328,54.447
			c-0.854,0.573-1.881,0.909-2.985,0.909c-1.104,0-2.13-0.336-2.985-0.909c-1.438-0.965-2.388-2.605-2.388-4.464
			s0.951-3.5,2.388-4.465c0.854-0.573,1.881-0.909,2.985-0.909c1.104,0,2.131,0.336,2.985,0.908
			c1.438,0.964,2.388,2.606,2.388,4.466C21.716,51.842,20.766,53.482,19.328,54.447z"/>
		<path fill="#00C4BA" d="M52.985,56.025V5.447h-5.97v50.578c-4.815,1.311-8.358,5.712-8.358,10.941
			c0,5.233,3.542,9.635,8.358,10.945v16.641h5.97V77.912c4.815-1.311,8.357-5.712,8.357-10.945
			C61.343,61.737,57.801,57.336,52.985,56.025z M50,72.34c-2.962,0-5.373-2.409-5.373-5.373c0-2.96,2.411-5.373,5.373-5.373
			c2.964,0,5.373,2.413,5.373,5.373C55.373,69.931,52.964,72.34,50,72.34z"/>
		<path fill="#00C4BA" d="M86.642,22.443V5.447h-5.971v16.996c-4.816,1.312-8.356,5.712-8.356,10.944
			c0,5.231,3.54,9.633,8.356,10.943v50.223h5.971V44.33C91.458,43.02,95,38.618,95,33.387C95,28.155,91.458,23.753,86.642,22.443z
			 M83.657,38.76c-2.964,0-5.373-2.41-5.373-5.373s2.409-5.374,5.373-5.374c2.962,0,5.373,2.411,5.373,5.374
			S86.619,38.76,83.657,38.76z"/>
	</g>
</g>
<g id="AUDIO_2" display="none">
	<g display="inline">
		<path fill="#00C4BA" d="M68.298,35.432c3.468,4.052,5.361,9.161,5.361,14.566s-1.894,10.515-5.361,14.568l3.615,3.617
			c4.424-5.021,6.843-11.412,6.843-18.184s-2.419-13.163-6.843-18.184L68.298,35.432z"/>
		<path fill="#00C4BA" d="M83.419,20.311l-3.609,3.607c6.52,7.137,10.093,16.327,10.093,26.08c0,9.752-3.573,18.945-10.093,26.079
			l3.609,3.613C90.903,71.592,95.002,61.116,95,49.998C95,38.881,90.901,28.406,83.419,20.311z"/>
		<path fill="#00C4BA" d="M36.858,31.227H8.263C6.461,31.227,5,32.687,5,34.489c0,0.15,0.065,0.278,0.085,0.422H5v30.178h0.085
			C5.065,65.232,5,65.36,5,65.511c0,1.803,1.461,3.263,3.263,3.263h28.596v-0.097l25.903,19.666V11.657L36.858,31.323V31.227z
			 M38.688,36.277l19.024-14.445v56.337L38.688,63.723H10.05V36.277H38.688z"/>
	</g>
</g>
</svg>
