<?xml version="1.0" encoding="utf-8"?>
<!-- Generator: Adobe Illustrator 16.0.0, SVG Export Plug-In . SVG Version: 6.00 Build 0)  -->
<!DOCTYPE svg PUBLIC "-//W3C//DTD SVG 1.1//EN" "http://www.w3.org/Graphics/SVG/1.1/DTD/svg11.dtd">
<svg version="1.1" id="appadvice" xmlns="http://www.w3.org/2000/svg" xmlns:xlink="http://www.w3.org/1999/xlink" x="0px" y="0px"
	 width="500px" height="157.975px" viewBox="0 0 500 157.975" enable-background="new 0 0 500 157.975" xml:space="preserve">
<g>
	<path fill-rule="evenodd" clip-rule="evenodd" d="M358.916,79.281c0-10.616,0.021-21.232-0.007-31.847
		c-0.019-6.994,5.812-13.14,13.078-13.143c20.604-0.007,41.209-0.004,61.814,0.001c1.735,0,3.47-0.05,5.185,0.401
		c5.271,1.384,9.196,5.833,9.815,11.241c0.126,1.103,0.197,2.219,0.198,3.328c0.012,20.604,0.01,41.21,0.009,61.815
		c-0.001,6.211-4.11,11.483-10.132,12.928c-1.037,0.248-2.133,0.359-3.201,0.36c-21.197,0.021-42.394,0.02-63.59,0.013
		c-6.254-0.002-11.654-4.422-12.909-10.56c-0.172-0.845-0.249-1.725-0.25-2.587C358.91,100.582,358.916,89.932,358.916,79.281z
		 M430.193,104.37c0-0.524,0-0.938,0-1.351c0.006-7.9,0.014-15.802,0.014-23.701c0-2.122-0.01-4.246-0.036-6.368
		c-0.005-0.412-0.015-0.863-0.177-1.227c-0.775-1.747-0.521-3.808-1.679-5.432c-0.019-0.026-0.022-0.065-0.029-0.1
		c-0.279-1.431-1.153-2.582-1.825-3.82c-0.46-0.848-1.067-1.615-1.62-2.409c-0.997-1.429-2.07-2.796-3.423-3.909
		c-1.044-0.861-2.138-1.663-3.192-2.512c-1.031-0.83-2.2-1.41-3.37-2.008c-1.021-0.521-2.006-1.083-3.158-1.263
		c-0.161-0.024-0.324-0.134-0.458-0.24c-0.575-0.454-1.257-0.543-1.954-0.636c-0.823-0.11-1.635-0.304-2.454-0.448
		c-0.716-0.126-1.433-0.312-2.153-0.334c-1.668-0.05-3.34-0.02-5.011-0.01c-0.347,0.002-0.728-0.032-1.033,0.094
		c-1.925,0.794-4.187,0.347-5.974,1.629c-0.026,0.021-0.062,0.034-0.096,0.038c-0.986,0.123-1.81,0.6-2.685,1.042
		c-1.362,0.688-2.663,1.43-3.91,2.314c-2.287,1.623-4.344,3.464-6.015,5.722c-0.475,0.641-0.991,1.255-1.404,1.934
		c-0.685,1.123-1.305,2.284-1.941,3.436c-0.117,0.211-0.205,0.442-0.275,0.673c-0.498,1.646-1.387,3.179-1.448,4.953
		c-0.001,0.034-0.012,0.069-0.028,0.1c-0.481,0.896-0.481,1.87-0.478,2.847c0.004,0.975-0.036,1.95-0.004,2.923
		c0.082,2.415-0.237,4.839,0.616,7.227c0.376,1.05,0.339,2.254,1.048,3.221c0.078,0.106,0.118,0.257,0.133,0.392
		c0.133,1.33,0.993,2.363,1.569,3.476c0.805,1.556,1.878,3.011,3.033,4.335c1.248,1.432,2.621,2.8,4.131,3.946
		c1.361,1.034,2.729,2.145,4.402,2.713c0.189,0.064,0.328,0.261,0.51,0.359c0.301,0.165,0.609,0.33,0.932,0.44
		c1.496,0.513,2.889,1.354,4.522,1.42c0.034,0.001,0.071,0.012,0.101,0.029c1.001,0.615,2.114,0.602,3.233,0.601
		c10.163-0.01,20.325-0.011,30.487-0.019C429.4,104.446,429.707,104.404,430.193,104.37z"/>
	<path fill-rule="evenodd" clip-rule="evenodd" d="M218.936,66.983c-0.035-2.01-0.076-3.832-0.091-5.655
		c-0.016-1.844-0.03-3.688,0.003-5.531c0.033-1.83-0.142-3.666,0.083-5.504c2.636,0,5.161,0,7.774,0
		c0.029,0.458,0.077,0.865,0.077,1.271c0.003,15.066,0.001,30.133,0.001,45.199c0,1.225-0.274,1.588-1.483,1.658
		c-1.179,0.068-2.365,0.047-3.548,0.02c-0.85-0.019-1.454-0.453-1.711-1.282c-0.164-0.529-0.269-1.077-0.406-1.615
		c-0.084-0.327-0.182-0.651-0.271-0.968c-0.611-0.069-0.936,0.269-1.206,0.618c-0.959,1.239-2.169,2.215-3.582,2.79
		c-1.335,0.544-2.782,0.897-4.215,1.1c-2.207,0.311-4.376-0.186-6.463-0.868c-0.9-0.293-1.757-0.855-2.506-1.454
		c-1.698-1.358-3.038-3.049-4.126-4.933c-0.139-0.238-0.243-0.5-0.336-0.762c-0.32-0.918-0.635-1.838-0.939-2.763
		c-0.098-0.297-0.197-0.601-0.226-0.909c-0.188-2.003-0.337-4.01-0.538-6.012c-0.207-2.064,0.299-4.072,0.46-6.105
		c0.059-0.741,0.379-1.469,0.63-2.186c0.411-1.178,0.798-2.357,1.455-3.442c1.202-1.98,2.584-3.733,4.657-4.912
		c2.409-1.371,4.981-1.925,7.698-1.738c1.761,0.122,3.458,0.57,5.066,1.413c1.034,0.541,1.93,1.21,2.803,1.95
		C218.244,66.575,218.541,66.727,218.936,66.983z M219.134,81.453c0-0.73,0.069-1.468-0.016-2.188
		c-0.138-1.17-0.453-2.321-0.552-3.492c-0.119-1.429-0.863-2.582-1.599-3.683c-0.835-1.249-2.28-1.804-3.69-2.147
		c-0.963-0.234-2.008-0.17-3.014-0.152c-0.617,0.01-1.284,0.064-1.837,0.307c-2.235,0.98-3.653,2.742-4.29,5.061
		c-0.572,2.081-0.889,4.212-0.803,6.394c0.107,2.727,0.402,5.369,1.817,7.814c0.813,1.406,2.022,2.345,3.431,2.686
		c2.191,0.529,4.433,0.563,6.59-0.593c1.668-0.893,2.718-2.214,3.175-3.925C218.871,85.559,219.291,83.532,219.134,81.453z"/>
	<path fill-rule="evenodd" clip-rule="evenodd" d="M180.574,94.088c-0.507,0.479-0.931,0.781-1.23,1.18
		c-0.975,1.292-2.418,1.954-3.695,2.842c-0.084,0.059-0.187,0.101-0.287,0.123c-2.511,0.558-5.036,1.237-7.619,0.834
		c-1.838-0.286-3.734-0.631-5.246-1.878c-1.564-1.289-2.844-2.724-3.543-4.758c-0.676-1.966-0.57-3.909-0.513-5.866
		c0.026-0.929,0.466-1.888,0.88-2.755c0.828-1.734,2.129-3.084,3.785-4.062c2.855-1.688,5.986-2.347,9.264-2.404
		c1.495-0.026,2.987,0.018,4.469-0.29c0.567-0.117,1.178-0.03,1.769-0.034c1.13-0.01,1.593-0.371,1.483-1.505
		c-0.167-1.745-0.233-3.567-1.614-4.926c-0.289-0.286-0.611-0.594-0.979-0.735c-1.957-0.757-3.961-1.039-6.021-0.425
		c-0.034,0.01-0.067,0.02-0.102,0.024c-1.829,0.298-3.57,0.875-5.261,1.621c-0.221,0.098-0.463,0.156-0.699,0.209
		c-0.967,0.219-1.28,0.013-1.688-0.902c-0.438-0.98-0.947-1.928-1.424-2.89c-0.406-0.82-0.382-1.157,0.362-1.702
		c0.519-0.38,1.137-0.641,1.736-0.893c0.638-0.267,1.302-0.471,1.962-0.682c0.527-0.168,1.057-0.35,1.599-0.449
		c1.435-0.264,2.869-0.557,4.317-0.705c1.868-0.19,3.748-0.217,5.605,0.188c0.406,0.089,0.807,0.242,1.218,0.285
		c2.128,0.217,3.862,1.281,5.474,2.567c0.501,0.4,0.872,0.974,1.263,1.499c0.776,1.045,1.289,2.243,1.593,3.483
		c0.312,1.271,0.546,2.599,0.557,3.904c0.053,6.716,0.023,13.433,0.025,20.151c0,0.625,0.031,1.252,0.013,1.878
		c-0.026,0.932-0.29,1.289-1.228,1.359c-1.211,0.091-2.433,0.074-3.648,0.06c-0.608-0.008-1.043-0.337-1.248-0.938
		c-0.245-0.722-0.488-1.446-0.756-2.161C181.008,94.968,180.82,94.617,180.574,94.088z M176.402,82.435c0,0.012,0,0.021,0,0.032
		c-0.59,0-1.181,0.006-1.771,0c-1.883-0.018-3.555,0.876-5.351,1.233c-0.064,0.012-0.125,0.061-0.181,0.101
		c-2.079,1.453-3.068,3.384-2.449,5.931c0.294,1.212,1.078,2.192,2.331,2.761c2.341,1.059,7.114,0.296,9.001-1.926
		c0.936-1.102,1.805-2.272,1.772-3.883c-0.019-0.926,0.182-1.862,0.333-2.785c0.183-1.116-0.151-1.581-1.293-1.586
		C177.997,82.31,177.199,82.392,176.402,82.435z"/>
	<path fill-rule="evenodd" clip-rule="evenodd" d="M346.326,72.571c0,3.327,0,6.692,0,10.15c-0.486,0.039-0.927,0.105-1.367,0.105
		c-6.298,0-12.596-0.008-18.894-0.014c-1.874-0.003-2.134,0.36-1.576,2.19c0.081,0.267,0.184,0.533,0.212,0.808
		c0.189,1.826,1.156,3.283,2.37,4.532c0.681,0.7,1.594,1.288,2.513,1.612c1.128,0.397,2.364,0.557,3.566,0.656
		c2.021,0.168,4.015-0.262,6.014-0.485c0.577-0.064,1.132-0.323,1.695-0.498c0.929-0.288,1.846-0.621,2.787-0.857
		c0.857-0.216,1.314,0.083,1.354,0.95c0.061,1.353,0.037,2.711-0.022,4.063c-0.032,0.722-0.478,1.201-1.191,1.424
		c-0.362,0.111-0.702,0.296-1.06,0.426c-0.648,0.233-1.289,0.519-1.958,0.66c-1.293,0.271-2.596,0.545-3.907,0.661
		c-2.382,0.213-4.777,0.454-7.144-0.188c-0.234-0.063-0.477-0.103-0.718-0.134c-2.776-0.354-5.079-1.669-7.263-3.356
		c-1.335-1.031-2.19-2.367-3.14-3.691c-0.813-1.138-1.104-2.463-1.671-3.684c-0.256-0.55-0.317-1.203-0.404-1.818
		c-0.268-1.892-0.589-3.784-0.431-5.705c0.211-2.556,0.422-5.084,1.364-7.547c1.192-3.115,3.138-5.569,5.798-7.445
		c1.191-0.84,2.481-1.683,4.053-1.768c0.275-0.015,0.565-0.049,0.818-0.148c2.023-0.8,4.126-0.622,6.183-0.357
		c1.993,0.257,3.975,0.779,5.698,1.882c1.761,1.127,3.368,2.43,4.42,4.327c0.42,0.758,0.922,1.451,1.166,2.307
		C345.684,71.95,346.025,72.2,346.326,72.571z M331.788,77.011c0-0.007,0-0.013,0-0.019c0.209,0,0.417-0.001,0.625,0
		c1.772,0.003,3.544,0.022,5.314,0c0.967-0.011,1.223-0.24,1.146-1.187c-0.121-1.497-0.503-2.935-1.434-4.16
		c-1.297-1.707-3.132-2.302-5.17-2.517c-1.192-0.127-2.268,0.253-3.336,0.657c-0.57,0.215-1.147,0.498-1.621,0.875
		c-1.635,1.301-2.372,3.12-2.749,5.108c-0.158,0.834,0.11,1.141,0.974,1.229c0.171,0.018,0.346,0.013,0.52,0.013
		C327.967,77.011,329.878,77.011,331.788,77.011z"/>
	<path fill-rule="evenodd" clip-rule="evenodd" d="M247.922,89.577c0.293-0.484,0.518-0.781,0.661-1.113
		c0.164-0.381,0.294-0.787,0.369-1.194c0.435-2.374,1.358-4.583,2.242-6.808c0.141-0.354,0.219-0.731,0.315-1.101
		c0.045-0.168,0.042-0.351,0.101-0.511c0.543-1.494,1.094-2.985,1.646-4.476c0.036-0.098,0.105-0.183,0.139-0.28
		c0.527-1.538,1.045-3.08,1.576-4.617c0.499-1.442,0.993-2.887,1.52-4.319c0.355-0.967,1.106-1.384,2.115-1.383
		c1.494,0.001,2.99-0.006,4.485,0.003c0.276,0.002,0.558,0.036,0.827,0.1c0.753,0.178,0.974,0.513,0.839,1.287
		c-0.065,0.376-0.15,0.756-0.288,1.109c-0.58,1.486-1.184,2.963-1.777,4.444c-0.091,0.226-0.189,0.448-0.271,0.677
		c-0.53,1.503-1.027,3.018-1.596,4.506c-0.544,1.42-1.189,2.801-1.741,4.218c-0.553,1.42-1.029,2.869-1.565,4.296
		c-0.218,0.582-0.537,1.126-0.751,1.709c-0.526,1.432-0.996,2.884-1.53,4.312c-0.536,1.429-1.135,2.831-1.683,4.256
		c-0.261,0.68-0.476,1.379-0.695,2.074c-0.404,1.282-0.853,1.666-2.158,1.684c-1.844,0.024-3.688,0.022-5.531,0.001
		c-1.115-0.014-1.361-0.242-1.765-1.264c-0.597-1.517-1.235-3.016-1.841-4.528c-0.142-0.353-0.205-0.734-0.334-1.094
		c-0.2-0.551-0.424-1.094-0.639-1.64c-0.113-0.29-0.229-0.58-0.342-0.87c-0.237-0.613-0.475-1.226-0.709-1.841
		c-0.172-0.454-0.332-0.913-0.507-1.365c-0.237-0.612-0.488-1.219-0.724-1.83c-0.138-0.354-0.256-0.718-0.392-1.073
		c-0.26-0.679-0.524-1.354-0.79-2.031c-0.039-0.096-0.106-0.181-0.142-0.278c-0.469-1.303-0.919-2.613-1.402-3.91
		c-0.582-1.559-1.2-3.105-1.786-4.663c-0.573-1.524-1.124-3.058-1.692-4.584c-0.157-0.423-0.341-0.834-0.514-1.249
		c-0.134-0.32-0.321-0.627-0.396-0.96c-0.189-0.839,0.183-1.353,1.045-1.437c0.517-0.052,1.042-0.022,1.563-0.023
		c1.253-0.002,2.505-0.02,3.757,0.005c1.259,0.024,1.52,0.26,1.951,1.462c0.629,1.759,1.299,3.504,1.927,5.264
		c0.465,1.307,0.879,2.631,1.331,3.941c0.578,1.67,1.18,3.333,1.758,5.003c0.601,1.738,1.166,3.489,1.786,5.221
		c0.492,1.373,1.008,2.734,1.233,4.186C247.573,89.047,247.705,89.186,247.922,89.577z"/>
	<path fill-rule="evenodd" clip-rule="evenodd" d="M285.154,81.145c0.234-2.034,0.416-4.074,0.721-6.097
		c0.219-1.453,0.865-2.778,1.608-4.042c0.456-0.775,0.898-1.562,1.405-2.302c1.459-2.134,3.521-3.549,5.848-4.53
		c1.137-0.479,2.404-0.686,3.633-0.896c2.729-0.47,5.462-0.546,8.169,0.209c0.366,0.103,0.751,0.194,1.128,0.2
		c1.279,0.022,2.306,0.725,3.397,1.237c0.604,0.284,0.746,0.646,0.519,1.295c-0.519,1.473-1.068,2.937-1.646,4.388
		c-0.228,0.574-0.558,0.719-1.292,0.543c-0.979-0.233-1.943-0.533-2.902-0.841c-2.104-0.675-4.285-0.801-6.388-0.317
		c-1.754,0.404-3.244,1.412-4.223,3.113c-0.897,1.562-1.285,3.197-1.418,4.946c-0.071,0.966-0.241,1.923-0.303,2.889
		c-0.142,2.218,0.304,4.384,0.923,6.475c0.474,1.601,1.478,2.908,2.994,3.853c1.418,0.883,2.906,1.024,4.479,1.087
		c2.606,0.104,5.003-0.674,7.365-1.633c0.192-0.078,0.374-0.192,0.569-0.257c0.717-0.238,1.149-0.01,1.331,0.715
		c0.058,0.233,0.07,0.482,0.071,0.724c0.008,1.253-0.008,2.506,0.011,3.759c0.011,0.735-0.298,1.195-0.932,1.601
		c-1.608,1.029-3.44,1.261-5.238,1.635c-1.858,0.387-3.755,0.317-5.614,0.181c-1.539-0.114-3.113-0.464-4.554-1.015
		c-1.771-0.675-3.508-1.542-4.816-3.001c-0.691-0.77-1.393-1.559-1.921-2.441c-1.365-2.283-2.381-4.692-2.469-7.428
		C285.569,83.851,285.316,82.516,285.154,81.145z"/>
	<path fill-rule="evenodd" clip-rule="evenodd" d="M127.349,94.687c-0.054,0.551-0.109,0.855-0.108,1.159
		c0.01,4.873,0.027,9.747,0.045,14.62c0.002,0.486,0.041,0.974,0.027,1.461c-0.02,0.624-0.207,1.199-0.847,1.436
		c-0.724,0.266-1.5,0.482-2.19-0.045c-0.246-0.188-0.395-0.56-0.488-0.876c-0.085-0.291-0.042-0.622-0.042-0.935
		c-0.002-15.003-0.002-30.008-0.002-45.011c0-0.174-0.006-0.349,0.003-0.522c0.05-0.957,0.431-1.448,1.213-1.57
		c0.82-0.129,1.646,0.322,1.913,1.11c0.144,0.424,0.173,0.885,0.269,1.326c0.075,0.354,0.174,0.702,0.258,1.038
		c0.709,0.039,0.935-0.461,1.297-0.757c0.857-0.699,1.633-1.613,2.616-2.024c1.643-0.688,3.29-1.519,5.181-1.412
		c1.734,0.099,3.486,0.014,5.205,0.216c1.483,0.174,2.821,0.869,4.111,1.667c1.866,1.157,3.235,2.751,4.242,4.639
		c0.631,1.186,1.085,2.482,1.479,3.771c0.334,1.094,0.489,2.242,0.678,3.375c0.109,0.648,0.15,1.311,0.177,1.969
		c0.027,0.694-0.053,1.396,0.007,2.087c0.214,2.508-0.312,4.935-0.914,7.321c-0.332,1.317-0.828,2.649-1.687,3.781
		c-0.271,0.357-0.43,0.799-0.691,1.164c-1.111,1.542-2.479,2.792-4.138,3.748c-2.773,1.598-5.795,1.804-8.883,1.68
		c-0.371-0.015-0.737-0.184-1.104-0.285c-0.468-0.13-0.928-0.295-1.402-0.391c-1.221-0.245-2.307-0.788-3.287-1.523
		c-0.719-0.538-1.366-1.17-2.062-1.74C128.024,95.002,127.769,94.912,127.349,94.687z M148.521,81.645
		c-0.038-0.833-0.021-1.674-0.127-2.497c-0.162-1.271-0.488-2.525-0.602-3.799c-0.154-1.735-0.996-3.167-1.87-4.573
		c-0.413-0.663-0.99-1.288-1.63-1.729c-1.135-0.78-2.311-1.463-3.764-1.652c-3.145-0.413-6.184-0.323-8.945,1.426
		c-1.275,0.808-2.237,1.921-2.88,3.341c-1.03,2.277-1.2,4.706-1.399,7.126c-0.207,2.504,0.153,4.996,0.353,7.491
		c0.124,1.56,0.746,2.976,1.312,4.381c0.559,1.394,1.555,2.583,2.949,3.252c1.662,0.798,3.379,1.49,5.299,1.318
		c0.346-0.031,0.697-0.014,1.044,0.012c2.279,0.169,4.169-0.786,5.99-2.005c0.788-0.527,1.287-1.273,1.735-2.046
		c0.589-1.014,1.312-2.037,1.554-3.148C148.032,86.278,148.654,84.009,148.521,81.645z"/>
	<path fill-rule="evenodd" clip-rule="evenodd" d="M89.772,94.694c-0.072,0.475-0.166,0.801-0.165,1.126
		c0.012,4.768,0.034,9.536,0.057,14.303c0.003,0.592,0.042,1.185,0.017,1.774c-0.054,1.27-1.422,2.151-2.623,1.713
		c-0.505-0.185-0.797-0.557-0.882-1.072c-0.051-0.307-0.046-0.624-0.046-0.937c-0.001-15.036-0.001-30.072-0.001-45.107
		c0-0.175-0.005-0.349,0.004-0.522c0.044-0.915,0.386-1.396,1.102-1.552c0.793-0.174,1.682,0.241,1.969,1.008
		c0.18,0.48,0.217,1.015,0.33,1.521c0.072,0.318,0.169,0.632,0.31,1.149c0.467-0.355,0.812-0.561,1.084-0.838
		c1.152-1.179,2.466-2.021,4.015-2.678c3.009-1.274,6.095-1.132,9.132-0.661c3.331,0.517,5.882,2.459,7.772,5.298
		c1.816,2.729,2.55,5.826,2.813,8.961c0.241,2.881,0.314,5.814-0.395,8.721c-0.383,1.562-0.761,3.115-1.472,4.535
		c-0.805,1.609-1.792,3.127-3.174,4.349c-1.025,0.906-2.163,1.634-3.373,2.239c-0.52,0.26-1.128,0.336-1.689,0.516
		c-1.956,0.631-3.972,0.631-5.993,0.576c-0.104-0.002-0.215,0.006-0.312-0.025c-2.161-0.709-4.507-0.988-6.232-2.711
		c-0.439-0.438-0.929-0.828-1.414-1.216C90.402,95.002,90.15,94.903,89.772,94.694z M110.906,81.639
		c-0.041-0.833-0.027-1.672-0.133-2.495c-0.158-1.237-0.475-2.456-0.588-3.696c-0.165-1.803-1.011-3.308-1.952-4.762
		c-0.424-0.654-1.01-1.266-1.653-1.704c-1.109-0.756-2.265-1.406-3.68-1.591c-3.143-0.408-6.186-0.327-8.944,1.43
		c-1.303,0.829-2.271,1.981-2.921,3.44c-0.988,2.218-1.144,4.579-1.348,6.925c-0.224,2.572,0.072,5.146,0.397,7.694
		c0.16,1.257,0.635,2.481,1.037,3.699c0.542,1.643,1.559,2.995,3.089,3.776c1.569,0.801,3.217,1.516,5.073,1.367
		c0.449-0.035,0.906-0.016,1.356,0.017c2.278,0.162,4.169-0.786,5.99-2.006c0.789-0.528,1.289-1.271,1.736-2.045
		c0.588-1.016,1.304-2.04,1.549-3.152C110.412,86.274,111.026,84.003,110.906,81.639z"/>
	<path fill-rule="evenodd" clip-rule="evenodd" d="M72.333,93.722c-0.569,0.554-1.006,0.929-1.385,1.357
		c-1.176,1.328-2.662,2.218-4.21,3.02c-0.301,0.156-0.66,0.204-0.998,0.281c-0.305,0.071-0.648,0.048-0.918,0.182
		c-1.613,0.799-3.355,0.688-5.024,0.518c-2.685-0.273-5.287-0.932-7.145-3.158c-0.939-1.125-1.835-2.271-2-3.813
		c-0.085-0.792-0.265-1.573-0.348-2.364c-0.153-1.459,0.228-2.857,0.745-4.177c0.55-1.399,1.513-2.566,2.736-3.474
		c1.088-0.809,2.258-1.484,3.514-2.004c0.256-0.107,0.508-0.236,0.774-0.304c2.662-0.676,5.318-1.308,8.112-1.177
		c1.803,0.085,3.615-0.062,5.423-0.126c0.852-0.029,1.096-0.325,1.047-1.187c-0.062-1.11-0.03-2.236-0.218-3.327
		c-0.416-2.416-1.228-4.648-3.501-5.995c-0.265-0.156-0.562-0.289-0.86-0.354c-2.053-0.449-4.11-0.716-6.191-0.149
		c-0.298,0.08-0.629,0.032-0.93,0.103c-0.705,0.166-1.416,0.326-2.097,0.566c-1.078,0.382-2.126,0.85-3.201,1.236
		c-0.571,0.206-1.002-0.027-1.258-0.608c-0.112-0.253-0.172-0.528-0.248-0.795c-0.401-1.404-0.299-1.468,1.026-2.081
		c2.296-1.062,4.715-1.636,7.195-1.955c2.467-0.316,4.897-0.178,7.293,0.671c1.522,0.54,2.854,1.304,3.857,2.527
		c0.853,1.039,1.459,2.216,1.874,3.554c0.812,2.609,0.881,5.254,0.88,7.929c-0.001,6.056,0.015,12.11,0.023,18.165
		c0.002,1.146-0.361,1.578-1.404,1.66c-1.136,0.09-1.798-0.372-1.945-1.393c-0.104-0.722-0.151-1.451-0.261-2.172
		C72.645,94.561,72.504,94.258,72.333,93.722z M72.46,84.446c0-0.534,0.02-1.022-0.004-1.51c-0.055-1.168-0.316-1.4-1.47-1.3
		c-1.275,0.11-2.548,0.247-3.823,0.365c-2.005,0.186-4.02,0.305-6.014,0.575c-0.88,0.117-1.712,0.557-2.578,0.811
		c-2.138,0.627-3.605,1.924-4.052,4.158c-0.182,0.91-0.275,1.87-0.211,2.793c0.115,1.622,0.731,3.132,2.181,3.955
		c1.28,0.729,2.69,1.268,4.241,1.312c1.772,0.052,3.422-0.382,5.107-0.863c2.07-0.591,3.594-1.841,4.736-3.529
		C71.946,89.184,72.592,86.881,72.46,84.446z"/>
	<path fill-rule="evenodd" clip-rule="evenodd" d="M270.138,81.14c0-5.079,0-10.159,0.001-15.239c0-0.312-0.009-0.628,0.025-0.938
		c0.059-0.54,0.367-0.894,0.897-1.022c0.269-0.065,0.548-0.122,0.823-0.124c1.529-0.005,3.062-0.026,4.59,0.027
		c1.189,0.041,1.516,0.399,1.586,1.611c0.043,0.729,0.018,1.461,0.018,2.191c0,9.22,0,18.44,0.001,27.661
		c0.001,0.417,0.019,0.834,0.035,1.251c0.057,1.399-0.302,1.826-1.72,1.882c-1.182,0.048-2.366,0.02-3.549,0.015
		c-0.451-0.002-0.908,0.007-1.353-0.059c-1.055-0.158-1.371-0.545-1.371-1.599c-0.002-5.219-0.001-10.438-0.001-15.657
		C270.127,81.14,270.132,81.14,270.138,81.14z"/>
	<path fill-rule="evenodd" clip-rule="evenodd" d="M274.138,59.51c-2.26,0.122-4.461-1.905-4.412-4.195
		c0.028-1.397,0.462-2.596,1.437-3.581c0.836-0.846,2.071-0.727,3.067-1.197c1.003,0.52,2.221,0.485,3.1,1.38
		c0.878,0.894,1.218,1.965,1.227,3.117C278.574,57.69,276.704,59.603,274.138,59.51z"/>
	<path fill-rule="evenodd" clip-rule="evenodd" d="M421.649,83.252c0,2.401-0.005,4.802,0.001,7.203
		c0.007,2.094-0.924,3.583-2.676,4.747c-1.204,0.801-2.431,0.931-3.769,0.855c-0.573-0.033-1.084-0.185-1.523-0.583
		c-0.585-0.531-1.267-0.923-1.809-1.544c-0.597-0.681-0.865-1.408-0.925-2.254c-0.043-0.589-0.031-1.183-0.03-1.773
		c0.003-4.177,0.021-8.354,0.011-12.529c-0.005-2.303-0.932-4.284-2.466-5.91c-0.707-0.747-1.569-1.495-2.703-1.685
		c-0.167-0.028-0.349-0.093-0.48-0.196c-1.274-0.991-2.76-0.792-4.215-0.758c-0.205,0.005-0.43,0.03-0.612,0.115
		c-1.468,0.69-3.109,1.088-4.31,2.236c-0.638,0.61-1.201,1.388-1.547,2.197c-1.23,2.867-0.989,5.661,0.537,8.406
		c0.837,1.508,2.066,2.561,3.53,3.278c0.899,0.441,2.004,0.547,3.031,0.629c1.134,0.09,2.193,0.339,3.206,0.832
		c0.932,0.453,1.681,1.129,2.197,2.014c1.222,2.087,0.561,4.784-1.392,6.334c-1.245,0.988-2.576,1.44-4.148,1.286
		c-0.794-0.077-1.599-0.067-2.397-0.109c-0.878-0.045-1.728-0.199-2.483-0.694c-0.114-0.075-0.247-0.173-0.373-0.177
		c-1.352-0.035-2.361-0.938-3.552-1.377c-0.161-0.061-0.327-0.133-0.464-0.234c-1.977-1.467-4.038-2.846-5.467-4.909
		c-0.783-1.131-1.705-2.196-2.013-3.598c-0.008-0.034-0.012-0.073-0.032-0.1c-1.073-1.399-1.02-3.142-1.432-4.741
		c-0.449-1.748-0.436-3.519-0.161-5.286c0.175-1.134,0.31-2.296,0.678-3.371c0.447-1.306,1.062-2.563,1.712-3.785
		c1.281-2.415,3.246-4.237,5.381-5.876c0.684-0.524,1.469-0.931,2.246-1.314c1.977-0.975,4.064-1.57,6.254-1.875
		c2.165-0.302,4.287-0.171,6.434,0.196c2.328,0.399,4.496,1.175,6.531,2.343c1.857,1.065,3.398,2.522,4.817,4.109
		c1.286,1.436,2.328,3.053,3.053,4.822c0.846,2.065,1.365,4.234,1.357,6.497c-0.009,2.192-0.002,4.384-0.002,6.578
		C421.646,83.252,421.647,83.252,421.649,83.252z"/>
</g>
</svg>
