<?xml version="1.0" encoding="utf-8"?>
<!-- Generator: Adobe Illustrator 18.0.0, SVG Export Plug-In . SVG Version: 6.00 Build 0)  -->
<!DOCTYPE svg PUBLIC "-//W3C//DTD SVG 1.1//EN" "http://www.w3.org/Graphics/SVG/1.1/DTD/svg11.dtd">
<svg version="1.1" xmlns="http://www.w3.org/2000/svg" xmlns:xlink="http://www.w3.org/1999/xlink" x="0px" y="0px"
	 viewBox="0 0 600 600" enable-background="new 0 0 600 600" xml:space="preserve">
<g id="Layer_1" display="none">
	<path display="inline" fill="#FFFFFF" stroke="#1B1819" stroke-miterlimit="10" d="M209,379c0,0-75.7-26.5-66.2-85
		c15.8-50.7,43.3-104.7,44.9-138c23.7,21.9,44.2,89.6,36.3,111.5s-25.2,31.7-25.2,53.9C198.8,337.4,209,379,209,379z"/>
	<path display="inline" fill="#FFFFFF" stroke="#1B1819" stroke-miterlimit="10" d="M216.1,379c1.6-18.3-13.7-49.8-5.5-66.7
		c3.2-6.5,14.7-22.4,23.7-36.6c12.1-24.8-1.8-47.7-4.7-67.6c4.7,3.7,49.7,81.3,46.5,97.8c-3.2,16.5-17.8,40.5-27.7,48.4
		C236.9,363.6,216.1,379,216.1,379z"/>
</g>
<g id="Layer_2">
	<linearGradient id="SVGID_1_" gradientUnits="userSpaceOnUse" x1="36.5277" y1="225.2717" x2="536" y2="225.2717">
		<stop  offset="0" style="stop-color:#FFEC08"/>
		<stop  offset="2.971973e-002" style="stop-color:#FFE306"/>
		<stop  offset="0.11" style="stop-color:#FED003"/>
		<stop  offset="0.1928" style="stop-color:#FEC501"/>
		<stop  offset="0.2809" style="stop-color:#FEC100"/>
		<stop  offset="0.6685" style="stop-color:#F0882F"/>
		<stop  offset="0.8876" style="stop-color:#E7582D"/>
		<stop  offset="1" style="stop-color:#E12C2B"/>
	</linearGradient>
	<path fill="url(#SVGID_1_)" d="M83.5,439c-20.7-7.3-15.7-35.4-16.6-52c-1.1-21.4-12.5-42.4-30.4-54.4c12.3,6.1,24.7,12.3,35.2,21.1
		s19.2,20.5,21.5,34c7-7,8.4-18.1,6.1-27.8s-7.6-18.2-12.7-26.7c-5.1-8.5-10-17.4-11.4-27.2c-2-14.8,4.2-31.2-3.5-44
		c-3.2-5.4-8.6-9.4-10.9-15.3c-5-12.7,8.3-22.3,5-34.2c0.9,12.6,3.5,26,8,37.9c4.8,12.5,13.1,24.2,25,30.4
		c7.3,3.8,15.7,5.5,22.8,9.6c10.7,6.2,18,18,18.7,30.3c-0.4-9.3-3.8-18.3-6.1-27.3c-2.2-8.7-0.5-16.8-0.2-25.7
		c0.8-20.5-1.8-41.1-7.5-60.9c-2.5-8.6-3.9-17.6-4.3-26.5c7.1,17.6,19.9,33,36.3,42.5c10.6,6.2,16.8,19.2,14.9,31.4
		c0.8-5.2,5.9-9.7,7.3-14.8c1.2-4.6,2.6-11.4,1.6-16.2c-1.1-5.3-5.2-10.4-7.1-15.6c-2.2-6.3-3.6-12.8-4-19.5
		c-0.6-9.1,0.6-18.3,0.3-27.5c-0.3-9.2-2.4-18.7-8.5-25.5c8.8,9.9,15.3,23.2,22.6,34.3c8.5,12.9,17,25.8,25.4,38.7
		c5.1-16.6,5-34.3,1.9-51.2c-2.7-14.2-14.9-25.3-15.2-40.1c-0.2-8.8,4.1-17.9,0.8-26.1c7.2,1.7,12.6,7.6,16,14.1
		c3.4,6.5,5.1,13.7,7.8,20.6c2.4,6.3,5.8,12.3,11.3,16.4c4.7,3.5,10.6,5.9,10.4,13c2.3-10.3,3.4-20.9,3-31.5c-0.3-9-3.4-17.7-5-26.5
		c-1.7-9.3,0.6-16.3,4.7-24.7c1.1-2.3,2.2-4.8,1.8-7.3c-0.4-2.5-3-4.9-5.4-4c9,5.9,15.8,16.2,21.1,25.5c3.2,5.7,5.4,23.6,12.7,24.7
		c8.2-8.8,12.8-18.6,12-30.9c-0.7-9.9-3.8-19.4-4.7-29.2c-1.1-11.6,2.7-36.4,16.8-39.5c-4.4,15.5,4.8,30.5,15.5,41.1
		c11.4,11.3,24.3,20.7,31.2,35.6c-1.3-10.3,2.4-21,9.8-28.2c-2.5,6.8-1.4,14.5,0.8,21.4c2.3,6.9,5.6,13.4,7.6,20.4
		c4.5,15.5-1.3,29.6-1.4,45c10.6,1.3,26.2-12.5,32.9-19.8c1.9-2.1,3.7-4.4,4.2-7.1c0.5-2.7-0.6-6-3.2-7
		c6.1,11.2,12.4,22.7,14.4,35.3c1,6.5,0.9,13.1,0.8,19.6c-0.3,15.8-0.6,31.5-0.9,47.3c15.3-5.6,28.8-13.6,38.9-26.6
		c-0.9,1.1,3.6,15.6,3.8,17.9c0.7,6.8,0.6,13.7-0.2,20.5c-1.8,14.2-7.9,25-13.4,37.8c0,0.1,8-3.4,8.4-3.6c3.7-1.8,7.6-2.7,11.6-3.7
		c5.8-1.4,11.8-2.9,16.4-6.7c4.6-3.8,7.1-10.8,4-15.9c5.6,5,11.3,10,15.5,16.2s6.7,13.9,5.4,21.3c-1.5,8.3-7.6,14.9-12.3,21.9
		c-4.2,6.4-8.3,16.1-3.4,23c4.6,6.4,9.6,15.3,14.6,20.8c10.2-8.4,19.9-15.9,32.7-20.1c1.1,26.3-10.6,53-3.6,78.3
		c4.3,15.5,10.2,32.1-6.6,42.6"/>
	<g>
		<path fill="#39393A" d="M23.2,456h12.3l22.7,30.6V456h12.3v50H58.3l-22.7-30.6V506H23.2V456z"/>
		<path fill="#39393A" d="M82.9,491.2c0.1,5.1,2.4,7.6,6.9,7.6c2.7,0,4.2-0.9,5.6-3.2h11c-0.8,2.8-1.5,4.3-2.8,6
			c-2.9,3.6-8,5.7-13.8,5.7c-11.2,0-18.5-7.1-18.5-18.1c0-11.2,6.9-18.2,18-18.2c10.9,0,17.6,7.2,17.6,19v1.2H82.9z M96.3,484.2
			c-0.8-3.4-3.3-5.5-6.7-5.5c-3.4,0-5.8,2-6.4,5.5H96.3z"/>
		<path fill="#39393A" d="M145.3,503.6c0,7.2-1,10.5-4.3,14c-3.5,3.7-8.2,5.5-14.4,5.5c-6.5,0-11.3-1.9-14.8-6c-2.1-2.3-3-4.1-3.5-7
			h12.8c0.8,2.3,2.6,3.4,5.4,3.4c2.5,0,5-1.2,6.2-3.1c0.6-1,1.2-3.3,1.2-5.1v-3.2c-3.4,3.3-6,4.4-10.2,4.4c-9.3,0-15.8-7-15.8-17.2
			c0-10.6,7-18.4,16.4-18.4c4.1,0,6.9,1.3,9.6,4.5V472h11.4V503.6z M119.8,488.8c0,4.4,3.1,7.8,7.3,7.8c4.1,0,7.3-3.4,7.3-7.7
			c0-4.3-3.3-7.7-7.3-7.7C123,481.1,119.8,484.5,119.8,488.8z"/>
		<path fill="#39393A" d="M183.8,472v34h-11.4v-3.8c-2.5,3.3-5.7,4.9-10,4.9c-9.1,0-16.3-8-16.3-18.2c0-10.1,7.1-18,16.2-18
			c4.1,0,7.3,1.4,10,4.4V472H183.8z M158,488.9c0,4.4,3.3,7.9,7.3,7.9c4.1,0,7.4-3.5,7.4-7.8c0-4.2-3.3-7.7-7.4-7.7
			C161.4,481.2,158,484.7,158,488.9z"/>
		<path fill="#39393A" d="M201.5,506h-11.4v-24h-3.8v-10h3.8v-10.2h11.4V472h6.5v10h-6.5V506z"/>
		<path fill="#39393A" d="M221.5,459c0,3.7-2.9,6.7-6.4,6.7c-3.6,0-6.4-3.1-6.4-6.8c0-3.7,2.8-6.7,6.4-6.7
			C218.7,452.2,221.5,455.2,221.5,459z M220.8,506h-11.4v-34h11.4V506z"/>
		<path fill="#39393A" d="M242.3,489.4l7.8-17.4h12.8l-16.8,34h-7.6l-16.7-34h12.8L242.3,489.4z"/>
		<path fill="#39393A" d="M270.3,491.2c0.1,5.1,2.4,7.6,6.9,7.6c2.7,0,4.2-0.9,5.6-3.2h11c-0.8,2.8-1.5,4.3-2.8,6
			c-2.9,3.6-8,5.7-13.8,5.7c-11.2,0-18.5-7.1-18.5-18.1c0-11.2,6.9-18.2,18-18.2c10.9,0,17.6,7.2,17.6,19v1.2H270.3z M283.7,484.2
			c-0.8-3.4-3.3-5.5-6.7-5.5c-3.4,0-5.8,2-6.4,5.5H283.7z"/>
		<path fill="#39393A" d="M337.5,506h-12.3v-39h-10v-11h32.6v11h-10.3V506z"/>
		<path fill="#39393A" d="M360.7,451v25.3c3.1-3.7,5.7-5,10.3-5c4,0,7.1,1.2,9.3,3.8c2.3,2.4,3,4.7,3,9.4V506h-11.4v-17.2
			c0-3.5-0.1-4.1-0.7-5.4c-0.7-1.6-2.6-2.6-4.6-2.6c-1.8,0-3.7,0.9-4.8,2.3c-0.9,1.2-1.2,2.5-1.2,4.7V506h-11.4v-55H360.7z"/>
		<path fill="#39393A" d="M422.9,489c0,10.8-8,18.2-19.6,18.2c-11.3,0-19.2-7.6-19.2-18.5c0-10.3,8.3-18,19.4-18
			C414.9,470.7,422.9,478.3,422.9,489z M396.2,488.8c0,4.4,3.2,7.9,7.4,7.9c4.1,0,7.3-3.4,7.3-7.8c0-4.3-3.3-7.8-7.3-7.8
			C399.6,481.1,396.2,484.7,396.2,488.8z"/>
		<path fill="#39393A" d="M436.6,491.3c0,4.2,1.9,6.2,5.8,6.2c3.8,0,5.8-2,5.8-6.2V472h11.4v21.6c0,9.1-5.9,13.8-17.2,13.8
			c-11.3,0-17.2-4.7-17.2-13.8V472h11.4V491.3z"/>
		<path fill="#39393A" d="M499.3,503.6c0,7.2-1,10.5-4.3,14c-3.5,3.7-8.2,5.5-14.4,5.5c-6.5,0-11.3-1.9-14.8-6c-2.1-2.3-3-4.1-3.5-7
			H475c0.8,2.3,2.6,3.4,5.4,3.4c2.5,0,5-1.2,6.2-3.1c0.6-1,1.2-3.3,1.2-5.1v-3.2c-3.4,3.3-6,4.4-10.2,4.4c-9.3,0-15.8-7-15.8-17.2
			c0-10.6,7-18.4,16.4-18.4c4.1,0,6.9,1.3,9.6,4.5V472h11.4V503.6z M473.7,488.8c0,4.4,3.1,7.8,7.3,7.8c4.1,0,7.3-3.4,7.3-7.7
			c0-4.3-3.3-7.7-7.3-7.7C477,481.1,473.7,484.5,473.7,488.8z"/>
		<path fill="#39393A" d="M512.8,451v25.3c3.1-3.7,5.7-5,10.3-5c4,0,7.1,1.2,9.3,3.8c2.3,2.4,3,4.7,3,9.4V506H524v-17.2
			c0-3.5-0.1-4.1-0.7-5.4c-0.7-1.6-2.6-2.6-4.6-2.6c-1.8,0-3.7,0.9-4.8,2.3c-0.9,1.2-1.2,2.5-1.2,4.7V506h-11.4v-55H512.8z"/>
		<path fill="#39393A" d="M551.7,506h-11.4v-24h-3.8v-10h3.8v-10.2h11.4V472h6.5v10h-6.5V506z"/>
		<path fill="#39393A" d="M581,480.8c-2.2-1.1-4.1-1.6-6.3-1.6c-2.1,0-3.4,0.9-3.4,2.4s0.8,2,5.1,2.9c6.3,1.3,9.4,4.6,9.4,10.1
			c0,7.7-6.1,12.8-15.4,12.8c-4.4,0-8.6-1.3-12.9-3.9l4.1-8.5c3,2,6.6,3.5,9.1,3.5c2,0,3.6-1.2,3.6-2.7c0-1.6-0.9-2.3-4.8-3.1
			c-6.9-1.5-9.5-4.1-9.5-9.4c0-7.6,5.5-12.3,14.3-12.3c4,0,6.8,0.6,10.5,2.2L581,480.8z"/>
		<path fill="#39393A" d="M204.8,524h18.3c8.7,0,13.4,4.6,13.4,13c0,5.1-1.5,8-5.2,10.3c3.4,0.7,5.1,1.5,6.6,3.1
			c2,2.1,3.1,5.6,3.1,9.4c0,8.8-6.3,14.2-16.4,14.2h-19.8V524z M219.4,543.7c3.8,0,5.8-1.6,5.8-4.9c0-3.3-2-4.9-5.8-4.9h-2.3v9.8
			H219.4z M219.9,563.8c2.8,0,4.8-0.3,6.1-0.9c1.5-0.8,2.6-2.5,2.6-4.3s-1-3.6-2.4-4.4c-1.4-0.8-2.4-0.9-6.5-0.9h-2.5v10.5H219.9z"
			/>
		<path fill="#39393A" d="M253.5,559.3c0,4.2,1.9,6.2,5.8,6.2c3.8,0,5.8-2,5.8-6.2V540h11.4v21.6c0,9.1-5.9,13.8-17.2,13.8
			c-11.3,0-17.2-4.7-17.2-13.8V540h11.4V559.3z"/>
		<path fill="#39393A" d="M290,540v5.5c2.6-4.6,6.6-6.5,12.8-5.9v11.5c-1.9-1-2.8-1.2-4.8-1.2c-5.3,0-8,3.2-8,9.5V574h-11.4v-34H290
			z"/>
		<path fill="#39393A" d="M318.2,540v4.3c3.1-3.7,5.7-5,10.3-5c4,0,7.1,1.2,9.3,3.8c2.3,2.4,3,4.7,3,9.4V574h-11.4v-17.2
			c0-3.5-0.1-4.1-0.7-5.4c-0.7-1.6-2.6-2.6-4.6-2.6c-1.8,0-3.7,0.9-4.8,2.3c-0.9,1.2-1.2,2.5-1.2,4.7V574h-11.4v-34H318.2z"/>
		<path fill="#39393A" d="M354.6,559.2c0.1,5.1,2.4,7.6,6.9,7.6c2.7,0,4.2-0.9,5.6-3.2h11c-0.8,2.8-1.5,4.3-2.8,6
			c-2.9,3.6-8,5.7-13.8,5.7c-11.2,0-18.5-7.1-18.5-18.1c0-11.2,6.9-18.2,18-18.2c10.9,0,17.6,7.2,17.6,19v1.2H354.6z M368,552.2
			c-0.8-3.4-3.3-5.5-6.7-5.5c-3.4,0-5.8,2-6.4,5.5H368z"/>
		<path fill="#39393A" d="M392.2,540v5.5c2.6-4.6,6.6-6.5,12.8-5.9v11.5c-1.9-1-2.8-1.2-4.8-1.2c-5.3,0-8,3.2-8,9.5V574h-11.4v-34
			H392.2z"/>
	</g>
	<path fill="#FFE900" d="M145.2,435c-15.2-5.4-11.6-26-12.2-38.3c-0.8-15.8-9.2-31.2-22.4-40c9,4.5,18.1,9,25.9,15.5
		c7.7,6.5,14.1,15.1,15.8,25c5.2-5.1,6.2-13.3,4.5-20.4s-5.6-13.4-9.3-19.6c-3.7-6.3-7.4-12.8-8.4-20c-1.5-10.9,3.1-23-2.6-32.4
		c-2.4-4-6.3-6.9-8-11.2c-3.7-9.3,6.1-16.4,3.7-25.2c0.7,9.3,2.6,19.1,5.9,27.9c3.6,9.2,9.6,17.8,18.4,22.4c5.4,2.8,11.5,4,16.8,7.1
		c7.9,4.5,13.2,13.2,13.7,22.3c-0.3-6.9-2.8-13.5-4.5-20c-1.6-6.4-0.4-12.3-0.1-18.9c0.6-15.1-1.3-30.3-5.5-44.8
		c-1.8-6.3-2.9-12.9-3.1-19.5c5.2,13,14.6,24.3,26.7,31.3c7.8,4.5,12.4,14.1,10.9,23.1c0.6-3.8,4.4-7.1,5.4-10.9
		c0.9-3.4,1.9-8.4,1.2-11.9c-0.8-3.9-3.8-7.6-5.2-11.5c-1.6-4.6-2.7-9.4-3-14.3c-0.4-6.7,0.5-13.5,0.2-20.2
		c-0.2-6.7-1.8-13.8-6.3-18.8c6.5,7.3,11.3,17.1,16.6,25.2c6.2,9.5,12.5,19,18.7,28.5c3.7-12.2,3.7-25.2,1.4-37.7
		c-2-10.5-10.9-18.6-11.2-29.5c-0.2-6.5,3-13.2,0.6-19.2c5.3,1.2,9.3,5.6,11.8,10.4c2.5,4.8,3.8,10.1,5.7,15.1
		c1.8,4.6,4.3,9.1,8.3,12.1c3.4,2.6,7.8,4.4,7.7,9.6c1.7-7.6,2.5-15.4,2.2-23.2c-0.2-6.6-2.5-13-3.7-19.5c-1.3-6.9,0.4-12,3.4-18.2
		c0.8-1.7,1.6-3.5,1.4-5.4c-0.3-1.9-2.2-3.6-3.9-2.9c6.7,4.4,11.6,11.9,15.5,18.8c2.3,4.2,4,17.3,9.4,18.1c6-6.5,9.4-13.7,8.8-22.7
		c-0.5-7.2-2.8-14.3-3.5-21.5c-0.8-8.5,2-26.8,12.3-29.1c-3.2,11.4,3.5,22.4,11.4,30.3c8.4,8.3,17.8,15.2,22.9,26.2
		c-1-7.5,1.8-15.5,7.2-20.8c-1.9,5-1.1,10.6,0.6,15.7c1.7,5.1,4.1,9.9,5.6,15c3.3,11.4-1,21.8-1,33.1c7.8,1,19.3-9.2,24.2-14.6
		c1.4-1.5,2.7-3.2,3.1-5.2c0.4-2-0.5-4.4-2.4-5.1c4.5,8.2,9.1,16.7,10.6,25.9c0.8,4.8,0.7,9.6,0.6,14.5c-0.2,11.6-0.4,23.2-0.7,34.8
		c11.2-4.1,21.2-10,28.6-19.6c-0.6,0.8,2.6,11.4,2.8,13.2c0.5,5,0.5,10.1-0.2,15.1c-1.3,10.4-5.8,18.4-9.9,27.8
		c0,0.1,5.9-2.5,6.2-2.6c2.7-1.3,5.6-2,8.5-2.7c4.3-1,8.7-2.1,12.1-4.9c3.4-2.8,5.2-8,3-11.7c4.1,3.6,8.3,7.4,11.4,11.9
		c3.1,4.6,4.9,10.2,3.9,15.6c-1.1,6.1-5.6,10.9-9,16.1c-3.1,4.7-6.1,11.8-2.5,16.9c3.4,4.7,7.1,11.3,10.8,15.3
		c7.5-6.2,14.6-11.7,24.1-14.8c0.8,19.3-7.8,39-2.6,57.6c3.2,11.4,7.5,23.6-4.9,31.3"/>
	<linearGradient id="SVGID_2_" gradientUnits="userSpaceOnUse" x1="184" y1="332.8113" x2="425.1468" y2="332.8113">
		<stop  offset="0" style="stop-color:#FFEC08"/>
		<stop  offset="2.971973e-002" style="stop-color:#FFE306"/>
		<stop  offset="0.11" style="stop-color:#FED003"/>
		<stop  offset="0.1928" style="stop-color:#FEC501"/>
		<stop  offset="0.2809" style="stop-color:#FEC100"/>
		<stop  offset="0.6685" style="stop-color:#F0882F"/>
		<stop  offset="0.8876" style="stop-color:#E7582D"/>
		<stop  offset="1" style="stop-color:#E12C2B"/>
	</linearGradient>
	<path fill="url(#SVGID_2_)" d="M206.7,436c-10-3.5-7.6-17.1-8-25.1c-0.6-10.3-6-20.5-14.7-26.2c5.9,2.9,11.9,5.9,17,10.2
		s9.2,9.9,10.4,16.4c3.4-3.4,4.1-8.8,3-13.4c-1.1-4.7-3.7-8.8-6.1-12.9c-2.5-4.1-4.9-8.4-5.5-13.1c-1-7.1,2-15.1-1.7-21.3
		c-1.6-2.6-4.2-4.5-5.3-7.4c-2.4-6.1,4-10.8,2.4-16.5c0.4,6.1,1.7,12.6,3.9,18.3c2.3,6,6.3,11.7,12.1,14.7c3.5,1.9,7.6,2.6,11,4.6
		c5.2,3,8.7,8.7,9,14.7c-0.2-4.5-1.8-8.8-2.9-13.2c-1.1-4.2-0.2-8.1-0.1-12.4c0.4-9.9-0.9-19.9-3.6-29.4c-1.2-4.2-1.9-8.5-2.1-12.8
		c3.4,8.5,9.6,15.9,17.5,20.5c5.1,3,8.1,9.3,7.2,15.1c0.4-2.5,2.9-4.7,3.5-7.2c0.6-2.2,1.3-5.5,0.8-7.8c-0.5-2.6-2.5-5-3.4-7.5
		c-1.1-3-1.7-6.2-1.9-9.4c-0.3-4.4,0.3-8.8,0.1-13.3c-0.2-4.4-1.2-9-4.1-12.3c4.3,4.8,7.4,11.2,10.9,16.5
		c4.1,6.2,8.2,12.5,12.3,18.7c2.4-8,2.4-16.6,0.9-24.7c-1.3-6.9-7.2-12.2-7.3-19.4c-0.1-4.2,2-8.7,0.4-12.6c3.5,0.8,6.1,3.7,7.7,6.8
		c1.6,3.1,2.5,6.6,3.8,9.9c1.2,3,2.8,6,5.4,7.9c2.2,1.7,5.1,2.9,5,6.3c1.1-5,1.6-10.1,1.5-15.2c-0.2-4.4-1.6-8.5-2.4-12.8
		c-0.8-4.5,0.3-7.9,2.3-11.9c0.5-1.1,1.1-2.3,0.9-3.5s-1.4-2.3-2.6-1.9c4.4,2.9,7.6,7.8,10.2,12.3c1.5,2.7,2.6,11.4,6.2,11.9
		c4-4.3,6.2-9,5.8-14.9c-0.3-4.8-1.8-9.4-2.3-14.1c-0.5-5.6,1.3-17.6,8.1-19.1c-2.1,7.5,2.3,14.7,7.5,19.9
		c5.5,5.5,11.7,10,15.1,17.2c-0.6-4.9,1.2-10.2,4.7-13.6c-1.2,3.3-0.7,7,0.4,10.3c1.1,3.3,2.7,6.5,3.7,9.9
		c2.2,7.5-0.6,14.3-0.7,21.7c5.1,0.6,12.7-6,15.9-9.6c0.9-1,1.8-2.1,2-3.4c0.3-1.3-0.3-2.9-1.6-3.4c3,5.4,6,10.9,6.9,17
		c0.5,3.1,0.4,6.3,0.4,9.5c-0.1,7.6-0.3,15.2-0.4,22.8c7.4-2.7,13.9-6.6,18.8-12.8c-0.4,0.5,1.7,7.5,1.8,8.7
		c0.3,3.3,0.3,6.6-0.1,9.9c-0.9,6.9-3.8,12.1-6.5,18.2c0,0,3.8-1.6,4.1-1.7c1.8-0.8,3.7-1.3,5.6-1.8c2.8-0.7,5.7-1.4,7.9-3.2
		s3.4-5.2,1.9-7.7c2.7,2.4,5.5,4.8,7.5,7.8s3.2,6.7,2.6,10.3c-0.7,4-3.7,7.2-5.9,10.6c-2,3.1-4,7.8-1.6,11.1
		c2.2,3.1,4.6,7.4,7.1,10.1c4.9-4.1,9.6-7.7,15.8-9.7c0.5,12.7-5.1,25.6-1.7,37.8c2.1,7.5,4.9,15.5-3.2,20.6"/>
	<line fill="none" stroke="#BA1020" stroke-width="16" stroke-miterlimit="10" x1="29" y1="433" x2="573" y2="433"/>
</g>
</svg>
