<?xml version="1.0" encoding="utf-8"?>
<!-- Generator: Adobe Illustrator 16.0.0, SVG Export Plug-In . SVG Version: 6.00 Build 0)  -->
<!DOCTYPE svg PUBLIC "-//W3C//DTD SVG 1.1//EN" "http://www.w3.org/Graphics/SVG/1.1/DTD/svg11.dtd">
<svg version="1.1" id="business_insider" xmlns="http://www.w3.org/2000/svg" xmlns:xlink="http://www.w3.org/1999/xlink" x="0px"
	 y="0px" width="500px" height="157.975px" viewBox="0 0 500 157.975" enable-background="new 0 0 500 157.975"
	 xml:space="preserve">
<g>
	<path fill-rule="evenodd" clip-rule="evenodd" d="M100.576,68.136c0.386-0.149,0.777-0.442,1.156-0.427
		c2.765,0.112,3.758-0.563,3.948-4.254c0.265-5.136,0.28-10.286,0.289-15.432c0.013-7.33,0.003-14.661-0.154-21.988
		c-0.085-3.916-0.723-4.387-4.746-4.719c-0.483-0.039-0.956-0.211-1.468-0.767c0.44-0.152,0.881-0.439,1.32-0.438
		c6.701,0.026,13.402,0.032,20.101,0.19c1.442,0.033,2.934,0.483,4.295,1.018c6.116,2.398,8.035,9.161,4.185,14.938
		c-1.145,1.717-2.695,3.164-4.058,4.731c1.783,1.069,3.659,1.998,5.316,3.224c4.185,3.095,6.43,7.239,5.705,12.525
		c-0.757,5.52-3.985,9.351-9.228,11.016c-2.907,0.922-6.098,1.186-9.176,1.287c-5.133,0.168-10.279-0.021-15.42-0.085
		c-0.686-0.009-1.37-0.161-2.056-0.247C100.584,68.519,100.58,68.327,100.576,68.136z M113.791,53.049c0.057,0,0.111,0,0.167,0.001
		c0,3.038-0.022,6.076,0.009,9.113c0.02,1.909,1.139,2.939,2.884,3.492c6.864,2.178,11.941-1.668,11.609-8.822
		c-0.363-7.824-5.401-13.05-12.76-13.322c-1.395-0.051-1.985,0.34-1.934,1.819C113.856,47.901,113.791,50.476,113.791,53.049z
		 M113.791,32.024c0,2.259-0.051,4.521,0.036,6.775c0.022,0.591,0.317,1.469,0.757,1.697c2.805,1.462,7.881-0.258,8.937-3.271
		c0.693-1.98,1.023-4.289,0.772-6.36c-0.606-5.01-3.985-8.14-8.121-8.133c-1.56,0.004-2.502,0.44-2.409,2.282
		C113.88,27.346,113.791,29.688,113.791,32.024z"/>
	<path fill-rule="evenodd" clip-rule="evenodd" d="M254.896,137.533c0.888-0.492,1.197-0.815,1.495-0.806
		c2.989,0.098,3.651-1.777,3.664-4.23c0.057-10.442,0.116-20.885,0.164-31.327c0.011-2.266-1.157-3.437-3.406-3.579
		c-0.726-0.045-1.448-0.146-2.172-0.221c-0.023-0.222-0.046-0.442-0.068-0.663c0.5-0.146,1.002-0.423,1.5-0.417
		c8.718,0.104,17.442,0.062,26.149,0.439c4.971,0.217,9.653,1.797,13.399,5.349c10.713,10.159,6.486,29.126-7.636,34.366
		c-4.77,1.77-9.719,2.049-14.733,1.892c-5.368-0.168-10.737-0.29-16.105-0.451C256.594,137.868,256.045,137.718,254.896,137.533z
		 M268.035,116.103c0.065,0,0.132,0,0.197,0c0,4.986,0.012,9.972-0.007,14.957c-0.007,1.796,0.837,2.923,2.496,3.531
		c4.38,1.607,14.043,1.355,18.753-3.914c3.027-3.386,3.554-7.479,3.791-11.736c0.481-8.635-3.746-15.653-11.739-18.126
		c-3.627-1.121-7.643-1.017-11.489-1.381c-1.461-0.139-2.039,0.69-2.022,2.168C268.068,106.435,268.035,111.269,268.035,116.103z"/>
	<path fill-rule="evenodd" clip-rule="evenodd" d="M141.345,107.9c0,5.14-0.054,9.548,0.018,13.954
		c0.056,3.506,0.206,7.012,0.424,10.512c0.205,3.285,0.697,3.719,4.013,4.243c0.547,0.087,1.068,0.319,1.518,1.021
		c-5.271,0-10.542,0-15.813,0c-0.026-0.201-0.052-0.402-0.078-0.604c0.623-0.156,1.252-0.468,1.867-0.441
		c2.292,0.095,3.023-1.229,3.071-3.206c0.137-5.612,0.266-11.225,0.373-16.838c0.119-6.157,0.186-12.315,0.345-18.472
		c0.022-0.868,0.444-1.726,0.683-2.588c0.845,0.451,1.859,0.731,2.51,1.379c9.341,9.303,18.631,18.656,27.938,27.994
		c0.587,0.588,1.207,1.144,2.086,1.972c0-3.82,0.049-7.278-0.013-10.734c-0.075-4.286-0.313-8.569-0.349-12.854
		c-0.031-3.814-0.529-6.152-4.949-5.758c-0.246,0.021-0.516-0.225-0.716-0.84c5.095,0,10.19,0,15.929,0
		c-0.908,0.489-1.242,0.787-1.617,0.854c-3.104,0.545-3.521,1.025-3.595,4.312c-0.257,11.457-0.499,22.913-0.797,34.369
		c-0.021,0.768-0.455,1.524-0.698,2.287c-0.832-0.33-1.873-0.446-2.467-1.022c-9.452-9.179-18.85-18.414-28.247-27.648
		C142.34,109.358,142.022,108.804,141.345,107.9z"/>
	<path fill-rule="evenodd" clip-rule="evenodd" d="M251.362,39.591c0.321,8.241,0.611,16.471,0.985,24.697
		c0.1,2.194,1.312,3.408,3.639,3.364c0.632-0.012,1.269,0.227,1.903,0.351c-0.019,0.219-0.037,0.438-0.056,0.657
		c-5.272,0-10.544,0-15.816,0c-0.042-0.189-0.083-0.379-0.125-0.567c0.562-0.152,1.129-0.445,1.688-0.431
		c2.32,0.061,3.198-1.15,3.24-3.319c0.097-5.067,0.262-10.133,0.367-15.2c0.142-6.703,0.227-13.408,0.404-20.112
		c0.023-0.855,0.46-1.701,0.706-2.551c0.83,0.489,1.808,0.832,2.471,1.49c9.356,9.291,18.668,18.626,27.995,27.945
		c0.579,0.578,1.195,1.119,1.915,1.789c0-4.109,0.04-7.974-0.011-11.837c-0.055-4.054-0.185-8.107-0.301-12.159
		c-0.121-4.207-0.393-4.498-4.538-5.201c-0.394-0.067-0.759-0.3-1.067-0.897c5.071,0,10.143,0,15.639,0
		c-0.525,0.479-0.699,0.771-0.931,0.829c-3.825,0.958-4.015,1.146-4.098,5.133c-0.179,8.656-0.319,17.311-0.479,25.966
		c-0.048,2.573-0.046,5.147-0.19,7.715c-0.043,0.76-0.512,1.495-0.785,2.242c-0.766-0.294-1.71-0.396-2.27-0.913
		c-4.47-4.125-8.893-8.303-13.279-12.515C262.746,50.668,257.169,45.221,251.362,39.591z"/>
	<path fill-rule="evenodd" clip-rule="evenodd" d="M362.253,121.054c0,4.203-0.023,8.391,0.01,12.576
		c0.016,2.026,1.146,2.916,3.136,2.931c0.799,0.006,1.596,0.24,2.394,0.371c-0.021,0.219-0.043,0.438-0.064,0.655
		c-5.954,0-11.908,0-18.56,0c0.896-0.525,1.167-0.783,1.479-0.853c3.378-0.745,3.723-1.014,3.757-4.638
		c0.096-9.985,0.118-19.971,0.1-29.956c-0.007-3.751-0.49-4.169-4.284-4.611c-0.429-0.05-0.844-0.2-1.937-0.47
		c1-0.429,1.415-0.765,1.826-0.759c7.243,0.088,14.503-0.033,21.718,0.479c2.436,0.173,5.173,1.502,7.038,3.139
		c3.654,3.208,3.705,8.408,0.504,12.744c-1.555,2.106-3.524,3.908-5.579,6.142c4.386,4.942,8.696,10.076,13.352,14.876
		c1.404,1.449,3.763,1.976,5.692,2.906c0.449,0.217,0.934,0.36,1.4,0.998c-0.539,0.12-1.072,0.281-1.617,0.354
		c-8.043,1.086-14.387-1.398-18.553-8.682c-1-1.749-2.38-3.279-3.54-4.941C367.969,120.655,366.743,120.165,362.253,121.054z
		 M361.947,99.67c0,5.593-0.019,11.101,0.036,16.609c0.004,0.409,0.438,1.001,0.825,1.191c4.152,2.04,9.353,0.019,10.77-4.398
		C376.029,105.426,372.192,97.545,361.947,99.67z"/>
	<path fill-rule="evenodd" clip-rule="evenodd" d="M139.634,27.611c6.007,0,12.012,0,18.018,0c0.037,0.167,0.073,0.334,0.11,0.501
		c-0.509,0.173-1.015,0.485-1.526,0.496c-2.226,0.046-3.052,1.384-3.036,3.337c0.065,8.259-0.16,16.541,0.401,24.769
		c0.502,7.359,7.14,11.332,14.259,9.2c4.292-1.286,6.91-4.307,7.092-8.625c0.359-8.558,0.225-17.136,0.268-25.706
		c0.009-1.791-1.056-2.657-2.754-2.887c-0.853-0.116-1.698-0.28-2.547-0.422c0.027-0.223,0.055-0.443,0.081-0.665
		c5.159,0,10.318,0,15.478,0c0.043,0.128,0.084,0.257,0.126,0.386c-0.411,0.199-0.825,0.576-1.232,0.567
		c-2.751-0.056-3.396,1.575-3.405,3.925c-0.031,6.55-0.082,13.1-0.218,19.648c-0.093,4.517-0.86,8.869-4.063,12.375
		c-3.771,4.13-8.686,5.259-14.012,5.18c-1.554-0.023-3.127-0.119-4.654-0.396c-8.377-1.509-12.716-7.104-12.831-16.618
		c-0.076-6.239-0.003-12.48-0.019-18.722c-0.013-4.55-0.068-4.588-4.46-5.431c-0.398-0.076-0.765-0.318-1.146-0.482
		C139.586,27.897,139.61,27.755,139.634,27.611z"/>
	<path fill-rule="evenodd" clip-rule="evenodd" d="M323.642,113.935c8.64,0.527,10.913,0.304,14.449-1.514
		c-0.335,3.358-0.644,6.441-0.971,9.713c-0.573-0.301-0.79-0.347-0.809-0.434c-0.811-3.827-1.315-4.272-5.251-4.349
		c-2.392-0.045-4.785-0.008-7.318-0.008c0,4.685-0.067,9.183,0.029,13.678c0.046,2.113,1.481,3.323,3.463,3.459
		c2.629,0.181,5.288,0.162,7.917-0.017c1.984-0.136,3.21-1.434,3.69-3.391c0.151-0.616,0.375-1.213,0.904-1.755
		c0.838,2.78,0.421,5.481-0.635,8.011c-0.227,0.545-1.791,0.744-2.736,0.739c-5.066-0.028-10.13-0.201-15.195-0.264
		c-2.729-0.034-5.457,0.064-8.186,0.074c-0.571,0.002-1.145-0.128-1.783-0.662c0.421-0.189,0.843-0.541,1.266-0.542
		c2.306-0.007,3.173-1.269,3.19-3.401c0.083-10.757,0.19-21.514,0.256-32.271c0.013-2.167-1.215-3.256-3.338-3.405
		c-0.731-0.053-1.463-0.125-2.194-0.188c0.003-0.298,0.006-0.597,0.008-0.895c9.399,0,18.797,0,28.469,0
		c-0.243,2.315-0.537,5.122-0.832,7.93c-0.233,0.002-0.467,0.004-0.7,0.006c-0.179-0.619-0.195-1.371-0.571-1.832
		c-0.773-0.95-1.646-2.339-2.641-2.493c-2.985-0.464-6.049-0.46-9.083-0.531c-0.459-0.011-1.333,0.539-1.338,0.844
		C323.614,104.926,323.642,109.417,323.642,113.935z"/>
	<path fill-rule="evenodd" clip-rule="evenodd" d="M294.442,27.405c9.423,0,18.845,0,28.499,0c-0.248,2.439-0.529,5.216-0.814,8.025
		c-0.509-0.104-0.769-0.119-0.773-0.162c-0.391-3.732-2.924-4.563-6.106-4.546c-2.403,0.014-4.808,0.003-7.385,0.003
		c0,4.734,0,9.377,0,14.426c4.622-0.438,9.365,1.091,14.278-1.702c-0.336,3.401-0.641,6.489-0.962,9.751
		c-0.546-0.278-0.765-0.321-0.784-0.41c-0.914-4.044-1.229-4.306-5.458-4.371c-2.106-0.033-4.213-0.045-6.319-0.049
		c-0.217-0.001-0.435,0.118-0.824,0.232c0,4.477-0.07,8.979,0.032,13.476c0.045,1.968,1.312,3.244,3.253,3.382
		c2.629,0.186,5.284,0.218,7.916,0.074c2.199-0.121,3.489-1.525,3.975-3.676c0.125-0.551,0.375-1.072,0.859-1.552
		c0.846,2.782,0.363,5.47-0.64,8.033c-0.186,0.475-1.476,0.729-2.255,0.726c-4.601-0.025-9.2-0.201-13.801-0.239
		c-3.274-0.026-6.55,0.103-9.824,0.122c-0.668,0.004-1.336-0.168-2.318-0.303c0.483-0.556,0.602-0.828,0.776-0.871
		c3.833-0.942,4.005-0.935,4.063-4.793c0.152-10.064,0.189-20.133,0.17-30.199c-0.007-3.174-0.644-3.688-3.807-4.151
		c-0.617-0.091-1.217-0.297-1.825-0.45C294.394,27.922,294.418,27.663,294.442,27.405z"/>
	<path fill-rule="evenodd" clip-rule="evenodd" d="M214.13,105.522c-0.136-0.259-0.362-0.508-0.392-0.777
		c-0.723-6.633-8.431-7.494-12.635-5.107c-3.24,1.839-3.91,5.881-1.262,8.522c1.355,1.353,3.089,2.34,4.702,3.417
		c2.325,1.554,4.846,2.853,7.019,4.592c4.402,3.523,5.912,8.264,4.217,13.594c-1.665,5.235-5.61,8.285-11.098,8.569
		c-3.839,0.199-7.727-0.314-11.577-0.668c-1.696-0.156-2.531-1.24-2.37-3.09c0.229-2.645,0.298-5.304,0.436-7.957
		c0.311-0.013,0.621-0.025,0.933-0.038c0.182,0.74,0.387,1.477,0.543,2.223c1.276,6.107,9.49,9.127,14.486,5.319
		c3.14-2.392,3.657-7.005,0.946-9.923c-1.147-1.234-2.609-2.204-4.02-3.157c-2.128-1.438-4.422-2.64-6.492-4.149
		c-4.317-3.149-6.626-7.317-5.214-12.745c1.412-5.425,5.763-7.668,10.78-8.278c3.417-0.416,6.963,0.152,10.443,0.393
		c0.569,0.04,1.568,0.652,1.574,1.013c0.039,2.732-0.12,5.468-0.217,8.202C214.666,105.491,214.397,105.507,214.13,105.522z"/>
	<path fill-rule="evenodd" clip-rule="evenodd" d="M353.668,36.534c-0.174-0.318-0.468-0.624-0.502-0.956
		c-0.718-6.966-9.866-7.351-13.494-4.259c-2.355,2.008-2.725,5.394-0.495,7.664c1.445,1.473,3.323,2.528,5.042,3.722
		c2.55,1.771,5.318,3.279,7.654,5.293c3.85,3.318,4.866,7.746,3.507,12.546c-1.378,4.869-4.882,7.737-9.768,8.669
		c-4.397,0.839-8.824,0.679-13.184-0.557c-1.496-0.423-2.241-1.166-2.122-2.804c0.162-2.252,0.149-4.517,0.283-6.771
		c0.029-0.506,0.351-0.994,1.089-1.425c0.229,1.013,0.447,2.027,0.69,3.036c0.785,3.264,3.038,4.967,6.158,5.668
		c3.268,0.733,6.426,0.561,8.945-1.944c2.746-2.729,2.512-7.361-0.645-9.968c-2.086-1.723-4.511-3.038-6.814-4.489
		c-3.334-2.104-6.533-4.354-7.894-8.291c-2.365-6.841,1.655-13.335,9.56-14.579c3.757-0.591,7.718,0.062,11.581,0.267
		c0.529,0.028,1.466,0.724,1.464,1.107c-0.011,2.668-0.219,5.335-0.364,8.002C354.13,36.488,353.899,36.511,353.668,36.534z"/>
	<path fill-rule="evenodd" clip-rule="evenodd" d="M213.139,36.569c-0.184-0.529-0.41-1.047-0.542-1.588
		c-0.73-2.991-2.69-4.874-5.788-5.326c-3.322-0.486-6.443-0.06-8.636,2.826c-1.394,1.833-1.247,4.819,0.488,6.467
		c1.561,1.48,3.454,2.621,5.245,3.848c2.372,1.625,4.961,2.982,7.146,4.822c3.936,3.312,5.201,7.729,3.919,12.666
		c-1.247,4.8-4.585,7.736-9.355,8.825c-4.388,1.001-8.819,0.726-13.204-0.288c-1.834-0.424-2.838-1.315-2.627-3.414
		c0.259-2.562,0.265-5.152,0.38-7.73c0.333-0.012,0.666-0.023,0.999-0.036c0.137,0.589,0.295,1.173,0.406,1.765
		c1.195,6.332,8.772,9.527,14.228,5.995c3.75-2.429,4.157-7.743,0.67-10.871c-1.55-1.389-3.438-2.403-5.189-3.561
		c-1.624-1.074-3.351-2.01-4.894-3.187c-4.096-3.127-6.322-7.167-5.058-12.414c1.264-5.243,5.333-7.684,10.194-8.329
		c3.635-0.483,7.417,0.095,11.129,0.284c0.533,0.027,1.491,0.518,1.495,0.805c0.036,2.795-0.087,5.594-0.166,8.392
		C213.699,36.536,213.419,36.553,213.139,36.569z"/>
	<path fill-rule="evenodd" clip-rule="evenodd" d="M363.824,57.623c0.157,0.744,0.341,1.483,0.467,2.232
		c0.714,4.246,4.03,6.772,8.983,6.826c4.495,0.05,7.367-2.011,8.079-5.836c0.59-3.163-0.881-5.472-3.295-7.213
		c-1.89-1.364-4.012-2.402-5.923-3.737c-1.906-1.332-3.887-2.654-5.473-4.326c-5.044-5.318-4.531-15.689,6.538-18.425
		c4.109-1.016,8.201-0.621,12.275,0.202c0.468,0.095,1.234,0.512,1.242,0.795c0.075,2.791,0.021,5.585,0.002,8.379
		c-0.273,0.021-0.548,0.042-0.822,0.063c-0.178-0.291-0.475-0.566-0.516-0.876c-0.402-3.032-2.07-5.062-4.979-5.837
		c-3.145-0.838-6.236-0.585-8.797,1.695c-2.496,2.222-2.379,5.85,0.415,8.179c1.778,1.48,3.912,2.529,5.851,3.826
		c2.065,1.383,4.262,2.637,6.094,4.288c3.817,3.444,5.027,7.905,3.568,12.774c-1.374,4.588-4.685,7.507-9.402,8.494
		c-4.555,0.954-9.122,0.762-13.634-0.499c-1.494-0.417-2.24-1.202-2.107-2.831c0.221-2.708,0.34-5.425,0.501-8.137
		C363.203,57.647,363.514,57.636,363.824,57.623z"/>
	<path fill-rule="evenodd" clip-rule="evenodd" d="M122.151,89.911c-0.534,0.141-1.061,0.329-1.604,0.414
		c-3.015,0.469-3.55,0.963-3.616,4.064c-0.117,5.453-0.17,10.908-0.164,16.362c0.007,6.937,0.059,13.874,0.172,20.809
		c0.069,4.209,0.54,4.626,4.665,5.001c0.734,0.066,1.459,0.249,2.188,0.377c-0.019,0.212-0.037,0.424-0.055,0.636
		c-6.816,0-13.633,0-20.448,0c-0.042-0.178-0.084-0.355-0.126-0.533c0.659-0.163,1.317-0.46,1.977-0.463
		c2.047-0.013,3.001-1.07,3.091-3.012c0.154-3.345,0.377-6.689,0.389-10.034c0.031-9.122-0.028-18.243-0.062-27.364
		c-0.018-4.844-0.125-4.96-4.767-5.938c-0.272-0.058-0.513-0.271-0.717-0.827c6.332,0,12.664,0,18.997,0
		C122.098,89.571,122.125,89.742,122.151,89.911z"/>
	<path fill-rule="evenodd" clip-rule="evenodd" d="M226.397,96.591c5.76,0,11.52,0,17.28,0c0.021,0.143,0.043,0.284,0.064,0.426
		c-0.242,0.155-0.465,0.394-0.728,0.452c-3.857,0.866-3.981,0.86-3.99,4.859c-0.021,10.06,0.039,20.118,0.15,30.178
		c0.038,3.435,0.447,3.718,3.964,4.063c0.707,0.07,1.4,0.278,2.101,0.423c-0.023,0.213-0.046,0.425-0.069,0.638
		c-6.17,0-12.34,0-18.509,0c-0.051-0.148-0.101-0.296-0.152-0.444c0.477-0.191,0.956-0.553,1.431-0.546
		c2.251,0.034,3.031-1.248,3.063-3.246c0.097-6.001,0.21-12.003,0.255-18.005c0.033-4.522,0.02-9.048-0.064-13.569
		c-0.063-3.455-0.396-3.748-3.82-4.305c-0.347-0.057-0.673-0.243-1.009-0.369C226.375,96.96,226.387,96.775,226.397,96.591z"/>
	<path fill-rule="evenodd" clip-rule="evenodd" d="M219.938,68.218c0.516-0.212,0.91-0.525,1.288-0.506
		c2.79,0.141,3.449-1.602,3.459-3.875c0.045-10.596,0.07-21.192,0.095-31.789c0.005-1.996-0.821-3.271-2.989-3.405
		c-0.577-0.035-1.143-0.263-1.675-0.942c5.694,0,11.388,0,17.082,0c0.046,0.144,0.093,0.288,0.138,0.432
		c-0.567,0.177-1.13,0.487-1.703,0.507c-2.236,0.075-2.954,1.409-2.953,3.384c0.005,10.518-0.026,21.035,0.051,31.552
		c0.024,3.326,0.657,3.812,4.026,4.061c0.655,0.049,1.304,0.203,2.125,0.336C237.541,69.192,221.851,69.327,219.938,68.218z"/>
</g>
</svg>
