<?xml version="1.0" encoding="utf-8"?>
<!-- Generator: Adobe Illustrator 18.0.0, SVG Export Plug-In . SVG Version: 6.00 Build 0)  -->
<!DOCTYPE svg PUBLIC "-//W3C//DTD SVG 1.1//EN" "http://www.w3.org/Graphics/SVG/1.1/DTD/svg11.dtd">
<svg version="1.1" id="Layer_1" xmlns="http://www.w3.org/2000/svg" xmlns:xlink="http://www.w3.org/1999/xlink" x="0px" y="0px"
	 viewBox="0 0 2137 915" enable-background="new 0 0 2137 915" xml:space="preserve">
<polygon fill="#FFFFFF" stroke="#1B1819" stroke-miterlimit="10" points="92.7,801.2 465,229.1 833.9,801.2 "/>
<linearGradient id="SVGID_1_" gradientUnits="userSpaceOnUse" x1="13.408" y1="441.4978" x2="849.4011" y2="441.4978">
	<stop  offset="0" style="stop-color:#FFEC08"/>
	<stop  offset="2.971973e-002" style="stop-color:#FFE306"/>
	<stop  offset="0.11" style="stop-color:#FED003"/>
	<stop  offset="0.1928" style="stop-color:#FEC501"/>
	<stop  offset="0.2809" style="stop-color:#FEC100"/>
	<stop  offset="0.6685" style="stop-color:#F0882F"/>
	<stop  offset="0.8876" style="stop-color:#E7582D"/>
	<stop  offset="1" style="stop-color:#E12C2B"/>
</linearGradient>
<path fill="url(#SVGID_1_)" d="M92.1,799.2C57.4,787,65.8,740,64.3,712.1c-1.9-35.9-20.9-70.9-50.9-91
	c20.5,10.2,41.3,20.6,58.9,35.3s32.1,34.4,36.1,56.9c11.7-11.7,14.1-30.3,10.3-46.5c-3.8-16.1-12.8-30.5-21.3-44.7
	c-8.5-14.2-16.8-29.1-19.1-45.5c-3.4-24.7,7-52.3-5.8-73.7c-5.4-9-14.4-15.8-18.3-25.6c-8.3-21.2,13.8-37.4,8.3-57.3
	c1.5,21.1,5.8,43.6,13.5,63.4c8.1,21,22,40.5,41.8,51c12.2,6.4,26.2,9.2,38.2,16.1c18,10.3,30.1,30.1,31.2,50.8
	c-0.7-15.6-6.3-30.6-10.2-45.6c-3.7-14.5-0.8-28-0.3-43c1.3-34.3-3-68.9-12.5-101.9c-4.2-14.4-6.6-29.4-7.1-44.4
	c11.8,29.5,33.2,55.2,60.7,71.2c17.8,10.3,28.2,32.2,24.9,52.5c1.4-8.6,9.9-16.2,12.2-24.8c2-7.7,4.4-19.1,2.7-27.1
	c-1.9-8.9-8.7-17.4-11.8-26.1c-3.7-10.5-6-21.5-6.7-32.6c-1-15.3,1-30.6,0.5-46s-4-31.3-14.2-42.7c14.7,16.6,25.7,38.8,37.8,57.4
	c14.2,21.6,28.4,43.2,42.6,64.9c8.5-27.7,8.4-57.4,3.1-85.7c-4.5-23.8-24.9-42.4-25.5-67.2c-0.3-14.7,6.9-30,1.3-43.6
	c12,2.8,21.1,12.8,26.7,23.7c5.7,10.9,8.6,23,13,34.5c4.1,10.5,9.7,20.6,18.9,27.5c7.8,5.9,17.8,9.9,17.5,21.8
	c3.8-17.3,5.7-35,5.1-52.7c-0.5-15.1-5.7-29.6-8.4-44.3c-2.9-15.6,1-27.2,7.8-41.3c1.9-3.8,3.7-8,3.1-12.2s-5-8.1-9-6.7
	c15.1,9.9,26.5,27.1,35.3,42.7c5.3,9.5,9,39.5,21.3,41.3c13.7-14.8,21.5-31.2,20.1-51.7c-1.1-16.5-6.4-32.5-7.9-48.9
	c-1.8-19.5,4.6-60.9,28-66.1c-7.3,26,8,51.1,26,68.9c19.1,18.9,40.6,34.6,52.2,59.6c-2.2-17.2,4-35.2,16.5-47.3
	c-4.2,11.4-2.4,24.2,1.4,35.8c3.8,11.6,9.4,22.5,12.8,34.2c7.5,25.9-2.2,49.6-2.3,75.3c17.8,2.2,43.9-20.9,55-33.2
	c3.1-3.5,6.1-7.3,7-11.9c0.9-4.6-1.1-10-5.4-11.7c10.3,18.7,20.7,38,24.1,59.1c1.7,10.9,1.5,21.9,1.3,32.9
	c-0.5,26.4-1,52.7-1.5,79.1c25.6-9.4,48.2-22.7,65.2-44.5c-1.4,1.8,6,26,6.4,30c1.2,11.4,1,22.9-0.4,34.3
	c-3,23.8-13.3,41.9-22.5,63.2c-0.1,0.2,13.3-5.6,14.1-6c6.2-2.9,12.8-4.6,19.4-6.2c9.7-2.3,19.8-4.8,27.5-11.2
	c7.6-6.4,11.9-18.1,6.8-26.7c9.4,8.3,18.9,16.7,25.9,27.2c7,10.4,11.2,23.3,9,35.6c-2.6,13.9-12.8,24.9-20.5,36.7
	c-7,10.6-13.9,26.9-5.6,38.5c7.7,10.8,16,25.7,24.5,34.9c17.1-14.1,33.3-26.6,54.7-33.6c1.8,44-17.8,88.7-6,131
	c7.2,25.9,17.1,53.7-11.1,71.3"/>
<g>
	<path fill="#39393A" d="M206.2,271.1L485.3,650V304.7h58v528.1L264.2,453.9v348.3h-58V271.1z"/>
	<path fill="#39393A" d="M683.4,802.2h-58V375.6h-87.9v-70.9h233.7v70.9h-87.9V802.2z"/>
	<path fill="#39393A" d="M909.1,304.7h57.4c45.9,0,71.8,7.5,92.5,25.4c25.8,23.9,43.1,69.4,43.1,114.1c0,37.3-9.8,64.9-31,90.3
		c40.8,18.6,65.5,65.6,65.5,125.3c0,41.8-13.8,79.8-38.5,106.7c-25.3,26.9-49.4,35.8-101.1,35.8h-87.9V304.7z M984.9,518.8
		c23,0,36.8-5.2,46.5-17.9c9.8-12.7,16.1-35.1,16.1-55.2c0-20.9-6.3-41.8-16.1-53.7c-9.2-11.9-23.5-17.9-44.2-17.9h-20.1v144.7
		H984.9z M1002.7,731.3c25.3,0,40.8-4.5,53.4-15.7c13.8-11.9,23.5-35.8,23.5-58.9c0-22.4-9.2-46.2-23.5-58.9
		c-13.2-11.9-29.9-16.4-59.7-16.4h-29.3v149.9H1002.7z"/>
	<path fill="#39393A" d="M1196.9,668.7c0,24.6,1.7,38,6.9,50c7.5,17.2,23,28.3,40.8,28.3c17.2,0,32.7-11.2,40.2-28.3
		c5.2-11.9,6.9-25.4,6.9-50V488.2h55.7v182c0,49.2-6.9,76.1-25.3,101.4c-19.5,26.1-46.5,40.3-78.1,40.3s-58-14.2-77.5-40.3
		c-18.4-25.4-25.3-52.2-25.3-101.4v-182h55.7V668.7z"/>
	<path fill="#39393A" d="M1416.2,488.2v28.3c20.1-28.3,34.5-37.3,55.7-37.3c17.2,0,27.6,4.5,46.5,19.4l-25.8,66.4
		c-13.2-11.9-20.1-15.7-31-15.7c-12.6,0-26.4,8.2-33.9,20.9c-8,14.2-11.5,35.1-11.5,69.4v162.6h-55.7v-314H1416.2z"/>
	<path fill="#39393A" d="M1578.8,488.2v29.1c21.8-28.3,38.5-37.3,66-37.3c31,0,57.4,15.7,71.2,42.5c10.9,20.9,14.9,45.5,14.9,87.3
		v192.4h-55.7V626.9c0-32.8-1.7-47.7-7.5-59.7c-6.9-14.2-20.1-22.4-37.3-22.4c-37.9,0-51.7,28.3-51.7,105.9v151.4h-55.7v-314H1578.8
		z"/>
	<path fill="#39393A" d="M1791.3,662.7c2.9,51.5,27.6,84.3,62.6,84.3c27.6,0,43.1-14.9,65.5-61.2l47.1,34.3
		c-12.6,27.6-20.1,40.3-32.7,53.7c-21.2,23.9-51.1,38-81.5,38c-71.8,0-119.5-66.4-119.5-166.3S1778.6,480,1849.3,480
		c71.8,0,114.9,61.9,114.9,165.6v17.2H1791.3z M1906.7,603.8c-7.5-38-27-58.2-56.3-58.2c-27.6,0-48.2,21.6-55.7,58.2H1906.7z"/>
	<path fill="#39393A" d="M2034.8,488.2v28.3c20.1-28.3,34.5-37.3,55.7-37.3c17.2,0,27.6,4.5,46.5,19.4l-25.8,66.4
		c-13.2-11.9-20.1-15.7-31-15.7c-12.6,0-26.4,8.2-33.9,20.9c-8,14.2-11.5,35.1-11.5,69.4v162.6h-55.7v-314H2034.8z"/>
</g>
</svg>
