<?xml version="1.0" encoding="utf-8"?>
<!-- Generator: Adobe Illustrator 16.0.0, SVG Export Plug-In . SVG Version: 6.00 Build 0)  -->
<!DOCTYPE svg PUBLIC "-//W3C//DTD SVG 1.1//EN" "http://www.w3.org/Graphics/SVG/1.1/DTD/svg11.dtd">
<svg version="1.1" id="Layer_2" xmlns="http://www.w3.org/2000/svg" xmlns:xlink="http://www.w3.org/1999/xlink" x="0px" y="0px"
	 width="512px" height="512px" viewBox="0 0 512 512" enable-background="new 0 0 512 512" xml:space="preserve">
<g>
	<g>
		<g>
			<path fill-rule="evenodd" clip-rule="evenodd" fill="#FFFFFF" d="M345.346,507.999c-7.484,0-15.145-0.066-22.553-0.131
				c-7.369-0.063-14.99-0.13-22.4-0.13H175.902c-3.875,0-7.772,0.017-11.674,0.033c-3.917,0.017-7.839,0.033-11.747,0.033
				c-27.202,0-55.546-0.693-76.903-8.981c-21.993-8.524-40.89-24.062-53.208-43.751C4,425.72,4,380.81,4,337.379V177.3
				c0-55.717,1.603-97.41,22.34-126.58c15.625-21.958,38.534-36.348,68.092-42.77l0.1-0.021l4.514-0.509
				c8.619-0.972,17.238-1.943,25.852-2.919l0.076-0.009l2.572-0.092c3.564-0.128,7.121-0.256,10.684-0.396L330.135,4
				c63.581,0,118.491,0,150.032,39.803c28.138,35.506,27.99,83.395,27.804,144.024c-0.016,5.023-0.031,10.137-0.031,15.34v139.58
				c0,2.354,0.004,4.712,0.008,7.071c0.051,31.022,0.103,63.102-8.931,86.371c-8.541,22.007-24.087,40.898-43.775,53.193
				C427.778,506.561,384.116,507.999,345.346,507.999z"/>
		</g>
		<g>
			<path fill="#CCCCCC" d="M330.136,6C397.153,6,448.251,6.748,478.6,45.046c30.008,37.866,27.34,90.353,27.34,158.122
				c0,46.524,0,93.057,0,139.58c0,33.562,0.781,68.07-8.787,92.719c-8.521,21.957-24.152,40.469-42.971,52.221
				c-25.905,16.202-66.408,18.312-108.836,18.312c-14.932,0-30.095-0.261-44.953-0.261c-41.49,0-82.997,0-124.491,0
				c-7.765,0-15.618,0.066-23.42,0.066c-28.126,0-55.618-0.866-76.181-8.846c-21.965-8.514-40.475-24.148-52.237-42.947
				C6.503,425.949,6,383.616,6,337.379C6,284.023,6,230.651,6,177.3c0-51.532,0.964-95.873,21.97-125.421
				C42.878,30.928,65.339,16.318,94.857,9.905c10.09-1.138,20.182-2.274,30.266-3.417c4.402-0.159,8.789-0.313,13.186-0.486
				c61.188,0,122.383,0,183.571,0C324.655,6.002,327.411,6,330.136,6 M330.145,2.001v4l-0.003-4l-4.096,0l-4.167,0H138.308h-0.079
				l-0.079,0.003c-3.542,0.14-7.078,0.267-10.621,0.394l-2.552,0.092l-0.153,0.006l-0.152,0.017
				c-8.617,0.977-17.24,1.949-25.862,2.92l-4.402,0.497l-0.202,0.022l-0.199,0.043C63.947,12.527,40.632,27.184,24.71,49.56
				C3.629,79.214,2,121.209,2,177.3v160.079c0,43.714,0,88.915,18.673,118.755c12.546,20.052,31.788,35.875,54.182,44.555
				c21.678,8.412,50.235,9.116,77.626,9.116c3.911,0,7.835-0.017,11.755-0.033c3.899-0.017,7.793-0.033,11.666-0.033h124.491
				c7.402,0,15.021,0.066,22.387,0.13c7.411,0.064,15.074,0.131,22.566,0.131c39.047,0,83.044-1.462,110.957-18.92
				c20.05-12.521,35.883-31.758,44.578-54.165c9.17-23.62,9.117-55.891,9.066-87.098c-0.004-2.358-0.008-4.716-0.008-7.068v-139.58
				c0-5.202,0.016-10.313,0.031-15.334c0.188-61.02,0.336-109.217-28.236-145.272c-14.635-18.468-34.6-29.692-62.83-35.322
				C394.518,2.376,366.733,2.001,330.145,2.001L330.145,2.001z"/>
		</g>
	</g>
	<rect x="72.927" y="328.228" fill="#E8E8E8" width="365.957" height="50.072"/>
	<rect x="72.927" y="73.22" fill="#E8E8E8" width="365.957" height="50.073"/>
	<rect x="72.927" y="73.215" fill="#00C4BA" width="232.018" height="50.078"/>
	<rect x="72.927" y="133.368" fill="#E8E8E8" width="365.957" height="50.067"/>
	<rect x="146.647" y="133.368" fill="#A2C922" width="233.636" height="50.067"/>
	<rect x="72.927" y="388.702" fill="#E8E8E8" width="365.957" height="50.068"/>
	<rect x="111.421" y="328.228" fill="#F5D820" width="140.882" height="50.072"/>
	<rect x="206.629" y="388.592" fill="#FF8400" width="232.254" height="50.078"/>
	<g>
		<g>
			<path d="M111.607,291.836c-5.131,0-9.894-0.834-14.291-2.498c-4.396-1.665-8.211-4.014-11.442-7.046
				c-3.231-3.03-5.763-6.661-7.595-10.893c-1.833-4.23-2.749-8.91-2.749-14.041c0-5.13,0.915-9.81,2.749-14.041
				c1.832-4.23,4.363-7.86,7.595-10.893c3.231-3.031,7.046-5.38,11.442-7.046c4.397-1.665,9.16-2.498,14.291-2.498
				c3.998,0,7.561,0.517,10.693,1.549c3.131,1.033,5.879,2.398,8.244,4.097c2.364,1.699,4.381,3.599,6.047,5.697
				c1.664,2.099,3.03,4.247,4.097,6.445l-14.79,7.096c-0.534-1.332-1.283-2.581-2.249-3.748c-0.966-1.165-2.083-2.198-3.348-3.098
				c-1.266-0.899-2.633-1.599-4.097-2.099c-1.467-0.5-2.998-0.75-4.598-0.75c-2.732,0-5.23,0.484-7.495,1.449
				c-2.266,0.967-4.231,2.315-5.896,4.048c-1.666,1.733-2.947,3.781-3.847,6.146c-0.899,2.366-1.35,4.914-1.35,7.646
				c0,2.732,0.45,5.264,1.35,7.595c0.899,2.333,2.181,4.364,3.847,6.097c1.665,1.732,3.631,3.098,5.896,4.097
				c2.265,1,4.763,1.499,7.495,1.499c1.6,0,3.131-0.25,4.598-0.749c1.464-0.5,2.831-1.199,4.097-2.099
				c1.265-0.899,2.382-1.932,3.348-3.099c0.966-1.164,1.715-2.414,2.249-3.747l14.79,6.995c-1.066,2.133-2.433,4.265-4.097,6.396
				c-1.666,2.133-3.683,4.047-6.047,5.746c-2.365,1.698-5.113,3.082-8.244,4.147C119.167,291.302,115.605,291.836,111.607,291.836z"
				/>
			<path d="M170.268,290.637v-66.657h17.188v51.667h26.783v14.99H170.268z"/>
			<path d="M245.52,290.637v-66.657h17.188v66.657H245.52z"/>
			<path d="M297.185,290.637v-66.657h33.379c3.729,0,7.045,0.584,9.943,1.749c2.897,1.167,5.329,2.766,7.295,4.797
				c1.965,2.033,3.448,4.397,4.447,7.096s1.499,5.546,1.499,8.544s-0.5,5.831-1.499,8.495c-0.999,2.665-2.482,5.014-4.447,7.045
				c-1.966,2.033-4.397,3.633-7.295,4.797c-2.898,1.167-6.214,1.749-9.943,1.749h-16.19v22.386H297.185z M327.965,253.261
				c2.331,0,4.297-0.615,5.896-1.849c1.599-1.232,2.398-2.98,2.398-5.247c0-2.331-0.8-4.112-2.398-5.346
				c-1.6-1.232-3.565-1.85-5.896-1.85h-13.592v14.291H327.965z"/>
			<path d="M408.712,291.836c-6.796,0-12.576-0.967-17.339-2.898c-4.765-1.932-8.845-4.497-12.242-7.694l9.094-13.392
				c2.398,2.398,5.412,4.464,9.045,6.196c3.63,1.732,7.744,2.598,12.342,2.598c2.931,0,5.229-0.465,6.896-1.398
				c1.664-0.933,2.498-2.231,2.498-3.897c0-1.465-0.934-2.564-2.798-3.298c-1.866-0.732-4.197-1.383-6.995-1.949
				c-2.799-0.565-5.813-1.232-9.045-1.999c-3.232-0.765-6.246-1.914-9.044-3.447c-2.798-1.532-5.131-3.598-6.995-6.196
				c-1.866-2.599-2.799-6.028-2.799-10.293c0-2.799,0.583-5.479,1.749-8.045c1.165-2.564,2.864-4.812,5.097-6.746
				c2.231-1.932,4.997-3.48,8.295-4.646c3.298-1.165,7.078-1.749,11.343-1.749c10.858,0,19.887,3.098,27.082,9.294l-9.394,12.892
				c-2.798-2.331-5.913-4.08-9.344-5.246c-3.433-1.165-6.813-1.749-10.144-1.749c-2.533,0-4.364,0.399-5.497,1.199
				c-1.133,0.799-1.698,1.933-1.698,3.397c0,1.399,0.932,2.448,2.798,3.148c1.864,0.699,4.197,1.349,6.996,1.948
				c2.798,0.6,5.812,1.299,9.044,2.099c3.23,0.8,6.246,1.949,9.044,3.448s5.13,3.531,6.995,6.096
				c1.864,2.565,2.799,5.913,2.799,10.044c0,3.332-0.617,6.38-1.85,9.144c-1.233,2.766-3.015,5.114-5.346,7.046
				c-2.333,1.933-5.231,3.432-8.694,4.497C417.139,291.302,413.175,291.836,408.712,291.836z"/>
		</g>
	</g>
</g>
</svg>
