<?xml version="1.0" encoding="utf-8"?>
<!-- Generator: Adobe Illustrator 16.0.0, SVG Export Plug-In . SVG Version: 6.00 Build 0)  -->
<!DOCTYPE svg PUBLIC "-//W3C//DTD SVG 1.1//EN" "http://www.w3.org/Graphics/SVG/1.1/DTD/svg11.dtd">
<svg version="1.1" id="techcrunch" xmlns="http://www.w3.org/2000/svg" xmlns:xlink="http://www.w3.org/1999/xlink" x="0px" y="0px"
	 width="500px" height="157.975px" viewBox="0 0 500 157.975" enable-background="new 0 0 500 157.975" xml:space="preserve">
<g>
	<path fill-rule="evenodd" clip-rule="evenodd" d="M59.572,47.653c9.771,0,19.543,0.005,29.318-0.014
		c1.057-0.002,1.472,0.468,1.472,1.473c-0.014,5.932-0.021,11.869-0.008,17.8c0.003,0.979-0.478,1.273-1.375,1.27
		c-5.544-0.032-11.093-0.042-16.637-0.062c-2.464-0.01-2.708,0.263-2.706,2.718c0.012,11.672,0.005,23.348,0.01,35.022
		c0,0.58,0,1.164,0.031,1.745c0.07,1.487-0.261,1.841-1.8,1.841c-4.964,0-9.927-0.008-14.894-0.01c-0.697,0-1.395-0.01-2.092,0.024
		c-1.074,0.056-1.436-0.481-1.426-1.489c0.035-4.383,0.045-8.765,0.051-13.146c0.016-8.261,0.018-16.522,0.03-24.782
		c0.005-1.529-0.351-1.913-1.934-1.913c-5.622-0.008-11.248,0-16.871,0.005c-1.88,0.003-2.041-0.159-2.041-2.059
		c0-5.469,0-10.936,0.002-16.406c0-1.803,0.184-1.977,2.012-1.977c9.616,0,19.237,0,28.856,0
		C59.572,47.678,59.572,47.665,59.572,47.653z"/>
	<path fill-rule="evenodd" clip-rule="evenodd" d="M121.557,109.438c-9.502,0-19.01-0.002-28.512,0c-2.316,0-2.279,0-2.277-2.343
		c0.014-12.259,0.004-24.516-0.006-36.774c0-1.642,0.08-1.766,1.647-1.766c5.703-0.007,11.407-0.007,17.108,0
		c1.571,0,1.66,0.124,1.655,1.762c-0.02,5.586-0.03,11.172-0.03,16.76c0.002,1.843,0.525,2.242,2.396,2.24
		c10.901-0.027,21.805-0.02,32.703-0.027c1.475,0,2.95,0.002,4.423-0.027c1.406-0.028,1.78,0.308,1.78,1.762
		c-0.004,4.616-0.021,9.231-0.027,13.85c-0.002,1.009,0.025,2.017,0.043,3.024c0.023,1.26-0.278,1.555-1.574,1.555
		c-9.775,0-19.553,0-29.33,0C121.557,109.448,121.557,109.443,121.557,109.438z"/>
	<path fill-rule="evenodd" clip-rule="evenodd" d="M131.877,68.165c-6.279,0-12.562-0.016-18.843,0.014
		c-1.038,0.005-1.463-0.366-1.458-1.423c0.021-5.856,0-11.712,0.011-17.568c0-1.276,0.349-1.534,1.617-1.534
		c12.56,0.01,25.12,0.01,37.681-0.012c1.02-0.002,1.537,0.359,1.537,1.4c-0.004,5.932,0,11.866,0,17.8
		c0,0.984-0.506,1.344-1.472,1.344c-6.356-0.021-12.716-0.01-19.073-0.01C131.877,68.172,131.877,68.168,131.877,68.165z"/>
	<path fill-rule="evenodd" clip-rule="evenodd" d="M291.411,81.2c0.279-3.748,0.974-7.345,2.761-10.568
		c1.989-3.585,4.921-6.135,8.987-7.407c4.092-1.279,8.06-1.019,11.989,0.319c2.693,0.919,4.693,2.823,6.119,5.279
		c0.576,0.999,1.03,2.074,1.535,3.116c0.354,0.732,0.163,1.319-0.58,1.621c-2.391,0.986-4.789,1.965-7.215,2.86
		c-0.283,0.106-0.881-0.207-1.111-0.5c-0.495-0.635-0.845-1.387-1.263-2.085c-1.006-1.663-2.521-2.589-4.433-2.498
		c-1.93,0.095-3.349,1.143-4.374,2.85c-1.315,2.193-1.329,4.598-1.339,6.987c-0.005,2.396,0.106,4.757,1.308,7.002
		c1.542,2.871,5.537,3.861,8.003,1.712c0.803-0.7,1.481-1.578,2.092-2.461c0.742-1.074,1.248-1.294,2.41-0.697
		c1.96,1.005,3.915,2.025,5.861,3.06c0.893,0.478,1.051,1.496,0.242,2.622c-0.878,1.221-1.834,2.413-2.9,3.469
		c-3.152,3.106-7.113,4.04-11.398,4.032c-4.87-0.009-9.053-1.565-12.197-5.403c-1.58-1.933-2.771-4.103-3.263-6.589
		C292.205,85.688,291.821,83.441,291.411,81.2z"/>
	<path fill-rule="evenodd" clip-rule="evenodd" d="M443.718,82.226c0-4.885,0.005-9.771,0-14.655
		c-0.005-2.166,0.122-2.32,2.129-3.117c1.757-0.696,3.463-1.517,5.228-2.203c1.536-0.601,2.047-0.19,2.026,1.489
		c-0.025,2.755-0.064,5.508-0.051,8.259c0.006,0.411,0.182,0.958,0.479,1.177c0.205,0.149,0.794-0.083,1.128-0.285
		c3.025-1.829,8.543-2.006,11.362,0.966c1.854,1.955,2.581,4.471,2.673,7.029c0.191,5.694,0.12,11.396,0.157,17.095
		c0.004,1.021-0.551,1.49-1.525,1.496c-2.248,0.013-4.499,0.016-6.746,0.005c-1.127-0.009-1.404-0.715-1.399-1.708
		c0.014-4.227,0.01-8.453,0.01-12.678c0-0.814-0.005-1.631-0.055-2.443c-0.118-1.915-0.996-2.938-2.558-3.015
		c-2.021-0.099-3.146,0.807-3.405,2.809c-0.105,0.803-0.096,1.626-0.096,2.438c-0.005,4.228,0.006,8.453,0,12.679
		c0,1.699-0.292,1.965-1.955,1.948c-1.865-0.018-3.724,0.01-5.584-0.002c-1.398-0.008-1.804-0.407-1.808-1.812
		c-0.011-5.157-0.006-10.313-0.006-15.472C443.723,82.226,443.723,82.226,443.718,82.226z"/>
	<path fill-rule="evenodd" clip-rule="evenodd" d="M261.351,82.255c0-4.965,0-9.926,0-14.893c0-1.81,0.202-1.995,1.925-2.65
		c1.628-0.614,3.209-1.342,4.79-2.052c1.773-0.793,2.197-0.507,2.168,1.432c-0.04,2.712-0.065,5.429-0.03,8.141
		c0.004,0.439,0.252,0.996,0.581,1.27c0.207,0.176,0.889,0.077,1.146-0.145c1.76-1.514,3.892-1.388,5.964-1.397
		c4.461-0.024,7.107,3.41,7.451,6.987c0.162,1.698,0.358,3.396,0.384,5.097c0.056,4.379,0.029,8.762,0.035,13.145
		c0.007,1.772-0.303,2.054-2.122,2.042c-1.743-0.015-3.486-0.013-5.233,0.012c-1.3,0.018-1.592-0.209-1.592-1.519
		c-0.016-4.189,0-8.376,0-12.563c0-0.62,0-1.241-0.021-1.862c-0.086-2.747-1.061-3.937-3.203-3.94
		c-2.278-0.006-3.324,1.155-3.355,3.905c-0.04,4.459-0.02,8.921-0.02,13.378c-0.005,0.427-0.005,0.854-0.005,1.278
		c0.01,0.981-0.457,1.375-1.445,1.343c-1.783-0.055-3.566-0.042-5.351-0.028c-1.778,0.015-2.066-0.267-2.066-2.09
		C261.351,92.181,261.351,87.218,261.351,82.255z"/>
	<path fill-rule="evenodd" clip-rule="evenodd" d="M377.859,85.697c0,3.919,0.006,7.837,0,11.755
		c-0.005,1.657-0.394,2.044-2.07,2.053c-1.94,0.01-3.881,0.058-5.815-0.014c-0.507-0.021-1.138-0.299-1.472-0.673
		c-0.555-0.625-1.046-0.718-1.707-0.272c-2.677,1.802-5.654,1.672-8.504,0.861c-2.384-0.674-4.041-2.595-4.657-4.979
		c-0.571-2.231-0.829-4.581-0.899-6.89c-0.152-4.61-0.065-9.228-0.101-13.846c-0.011-0.96,0.404-1.512,1.339-1.526
		c2.405-0.046,4.809-0.046,7.214-0.03c1.011,0.006,1.138,0.729,1.138,1.541c-0.021,4.265-0.031,8.533-0.036,12.801
		c0,0.813,0,1.629,0.046,2.441c0.106,1.772,1.313,3.058,2.86,3.075c1.646,0.021,2.961-1.189,3.091-2.982
		c0.102-1.391,0.076-2.79,0.076-4.187c0-3.687-0.011-7.369-0.026-11.058c-0.004-1.359,0.259-1.649,1.612-1.652
		c2.057-0.009,4.113-0.02,6.17,0.01c1.47,0.021,1.782,0.45,1.768,1.934c-0.025,3.878-0.01,7.758-0.01,11.638
		C377.87,85.697,377.865,85.697,377.859,85.697z"/>
	<path fill-rule="evenodd" clip-rule="evenodd" d="M384.434,85.748c0-3.993,0.003-7.988-0.006-11.979
		c0-1.334,0.288-1.647,1.632-1.652c1.981-0.009,3.957-0.039,5.933,0.03c0.574,0.021,1.227,0.24,1.688,0.582
		c0.687,0.505,1.237,0.444,1.914,0.051c2.732-1.592,7.913-1.84,10.631,0.623c2.076,1.878,3.041,4.328,3.132,7.015
		c0.162,4.922,0.107,9.849,0.142,14.772c0.005,0.969,0.01,1.939-0.006,2.906c-0.015,1.003-0.509,1.457-1.54,1.432
		c-2.016-0.039-4.033-0.005-6.048-0.029c-1.602-0.021-1.977-0.419-1.98-2.021c0-4.383,0.035-8.763-0.014-13.144
		c-0.01-1.071-0.204-2.161-0.461-3.204c-0.27-1.097-1.142-1.491-2.224-1.493c-1.106-0.002-2.294-0.053-2.698,1.271
		c-0.332,1.097-0.641,2.251-0.662,3.385c-0.071,4.34-0.02,8.685-0.02,13.026c0,1.89-0.343,2.203-2.264,2.186
		c-1.666-0.014-3.334-0.027-5.001-0.002c-1.891,0.028-2.123-0.184-2.123-2.122c0-3.878,0-7.755,0-11.633
		C384.447,85.748,384.443,85.748,384.434,85.748z"/>
	<path fill-rule="evenodd" clip-rule="evenodd" d="M188.938,63.394c4.304,0,8.605,0.003,12.91,0c1.85-0.002,2.127,0.312,2.082,2.185
		c-0.033,1.434,0.024,2.871-0.006,4.304c-0.027,1.395-0.444,1.795-1.837,1.799c-2.016,0.002-4.032-0.034-6.047-0.03
		c-1.934,0.002-2.38,0.512-2.373,2.421c0.026,7.832,0.03,15.664,0.03,23.495c0,1.315-0.374,1.674-1.651,1.674
		c-2.016,0.002-4.032,0.005-6.047-0.015c-1.527-0.017-1.836-0.336-1.836-1.859c0.012-7.869,0.026-15.741,0.044-23.611
		c0.002-1.537-0.548-2.118-2.094-2.118c-2.171,0-4.342-0.004-6.514,0.04c-1.13,0.02-1.641-0.479-1.639-1.597
		c0.002-1.742-0.014-3.486-0.033-5.229c-0.014-1.132,0.616-1.46,1.632-1.458c4.46,0.019,8.918,0.008,13.378,0.008
		C188.938,63.399,188.938,63.396,188.938,63.394z"/>
	<path fill-rule="evenodd" clip-rule="evenodd" d="M219.466,88.186c-2.016,0-4.034-0.009-6.053,0.003
		c-1.715,0.008-2.162,0.718-1.422,2.286c0.798,1.691,2.337,2.581,4.024,2.503c1.933-0.088,3.89-0.606,5.729-1.247
		c1.038-0.361,1.646-0.243,2.172,0.558c0.737,1.135,1.388,2.327,2.093,3.483c0.377,0.627,0.136,1.087-0.436,1.325
		c-1.844,0.762-3.657,1.729-5.587,2.129c-1.946,0.4-4.027,0.408-6.019,0.25c-4.652-0.374-7.68-2.94-9.463-7.247
		c-1.387-3.355-1.312-6.794-0.813-10.191c0.627-4.265,2.874-7.697,6.997-9.301c1.837-0.716,4.032-0.714,6.062-0.701
		c3.622,0.023,6.521,1.646,8.339,4.808c0.797,1.382,1.347,2.963,1.698,4.524c0.378,1.688,0.4,3.462,0.574,5.197
		c0.117,1.199-0.242,1.627-1.494,1.642c-2.132,0.028-4.268,0.008-6.402,0.008C219.466,88.204,219.466,88.193,219.466,88.186z
		 M215.702,82.88c0-0.01,0-0.018,0-0.027c0.39,0,0.776,0,1.162,0c0.39,0,0.778,0.021,1.162,0c1.213-0.075,1.768-0.938,1.188-1.995
		c-0.384-0.701-0.874-1.43-1.504-1.895c-2.142-1.572-5.31-0.571-5.902,2.08c-0.264,1.166,0.271,1.785,1.457,1.829
		C214.075,82.904,214.888,82.88,215.702,82.88z"/>
	<path fill-rule="evenodd" clip-rule="evenodd" d="M424.165,85.586c0.212,1.936-0.121,3.798,1.207,5.361
		c1.076,1.266,3.209,1.699,4.569,0.689c0.615-0.457,1.212-0.995,1.65-1.614c0.669-0.93,1.415-0.895,2.197-0.331
		c1.254,0.904,2.477,1.861,3.674,2.842c0.788,0.642,0.829,1.474,0.182,2.249c-1.506,1.793-3.127,3.509-5.34,4.372
		c-1.162,0.455-2.48,0.624-3.743,0.692c-3.486,0.191-6.817-0.324-9.525-2.81c-1.747-1.605-2.94-3.559-3.5-5.888
		c-0.606-2.501-1.06-5.018-0.662-7.599c0.414-2.653,0.959-5.265,2.694-7.446c3.187-4.003,7.451-4.948,12.271-4.379
		c3.415,0.4,5.807,2.361,7.776,4.988c0.545,0.722,0.413,1.334-0.32,1.89c-1.418,1.072-2.802,2.193-4.212,3.282
		c-0.838,0.648-1.512,0.3-2.111-0.398c-0.471-0.555-0.859-1.255-1.456-1.615c-2.146-1.316-4.623-0.075-5.053,2.506
		C424.282,83.482,424.252,84.614,424.165,85.586z"/>
	<path fill-rule="evenodd" clip-rule="evenodd" d="M244.777,99.806c-3.105-0.098-5.878-0.908-8.199-2.947
		c-1.667-1.458-2.791-3.292-3.336-5.459c-0.64-2.531-1.149-5.078-0.756-7.702c0.49-3.295,1.287-6.457,3.888-8.843
		c2.778-2.543,6.133-3.042,9.719-2.911c3.668,0.134,6.351,1.914,8.463,4.786c0.521,0.712,0.521,1.202-0.218,1.743
		c-1.375,1.008-2.697,2.081-4.052,3.115c-0.75,0.572-1.308,0.317-1.875-0.366c-0.552-0.671-1.142-1.42-1.884-1.799
		c-2.001-1.012-4.161,0.02-4.774,2.186c-0.782,2.747-0.8,5.52-0.014,8.271c0.713,2.503,4.111,3.458,6.051,1.717
		c0.516-0.465,1.015-0.959,1.466-1.491c0.578-0.688,1.182-0.653,1.823-0.153c1.157,0.907,2.304,1.824,3.451,2.749
		c0.728,0.591,0.838,1.208,0.166,1.978c-1.48,1.71-3.01,3.418-5.181,4.181C248.013,99.388,246.359,99.503,244.777,99.806z"/>
	<path fill-rule="evenodd" clip-rule="evenodd" d="M328.776,85.604c0-3.953,0.004-7.91,0-11.86
		c-0.006-1.261,0.286-1.602,1.561-1.618c2.051-0.024,4.106-0.06,6.159,0.026c0.646,0.027,1.334,0.331,1.894,0.685
		c0.598,0.376,1.021,0.334,1.576-0.033c2.44-1.602,5.044-1.597,7.64-0.492c0.385,0.164,0.774,1.028,0.691,1.481
		c-0.423,2.238-0.954,4.462-1.54,6.671c-0.395,1.479-0.823,1.556-2.121,0.742c-0.646-0.405-1.38-0.737-2.117-0.925
		c-1.799-0.457-3.657,0.783-3.941,2.599c-0.131,0.837-0.182,1.696-0.182,2.545c-0.021,4.07,0,8.139-0.006,12.209
		c0,1.436-0.342,1.816-1.768,1.847c-2.056,0.042-4.113,0.028-6.164,0.011c-1.318-0.011-1.643-0.337-1.646-1.679
		c-0.016-4.068-0.007-8.139-0.007-12.208C328.796,85.604,328.786,85.604,328.776,85.604z"/>
</g>
</svg>
